<svg width="28" height="8" viewBox="0 0 28 8" fill="none" xmlns="http://www.w3.org/2000/svg">
<path d="M11.6562 1.65625C12.3333 0.979167 13.1146 0.640625 14 0.640625C14.8854 0.640625 15.6667 0.979167 16.3438 1.65625C17.0208 2.33333 17.3594 3.11458 17.3594 4C17.3594 4.88542 17.0208 5.66667 16.3438 6.34375C15.6667 7.02083 14.8854 7.35938 14 7.35938C13.1146 7.35938 12.3333 7.02083 11.6562 6.34375C10.9792 5.66667 10.6406 4.88542 10.6406 4C10.6406 3.11458 10.9792 2.33333 11.6562 1.65625ZM21.6562 1.65625C22.3333 0.979167 23.1146 0.640625 24 0.640625C24.8854 0.640625 25.6667 0.979167 26.3438 1.65625C27.0208 2.33333 27.3594 3.11458 27.3594 4C27.3594 4.88542 27.0208 5.66667 26.3438 6.34375C25.6667 7.02083 24.8854 7.35938 24 7.35938C23.1146 7.35938 22.3333 7.02083 21.6562 6.34375C20.9792 5.66667 20.6406 4.88542 20.6406 4C20.6406 3.11458 20.9792 2.33333 21.6562 1.65625ZM1.65625 1.65625C2.33333 0.979167 3.11458 0.640625 4 0.640625C4.88542 0.640625 5.66667 0.979167 6.34375 1.65625C7.02083 2.33333 7.35938 3.11458 7.35938 4C7.35938 4.88542 7.02083 5.66667 6.34375 6.34375C5.66667 7.02083 4.88542 7.35938 4 7.35938C3.11458 7.35938 2.33333 7.02083 1.65625 6.34375C0.979167 5.66667 0.640625 4.88542 0.640625 4C0.640625 3.11458 0.979167 2.33333 1.65625 1.65625Z" fill="white"/>
</svg>
