<svg width="640" height="325" viewBox="0 0 640 325" fill="none" xmlns="http://www.w3.org/2000/svg">
<path d="M234.47 114.138C236.71 115.278 238.52 116.947 239.92 119.177V88.2875C231.64 89.8275 225.68 92.9475 222.05 97.7575C218.42 102.568 216.6 108.318 216.6 115.068V117.708C219.17 115.398 222.39 113.928 226.28 113.268C229.5 112.718 232.23 113.008 234.47 114.138ZM301.85 132.617C304.16 125.357 305.31 115.938 305.31 104.358C305.31 93.4375 303.84 85.9775 300.92 81.9675C297.99 77.9675 293.77 76.5375 288.27 77.6975C287.24 77.9175 286.22 78.1275 285.19 78.3475V146.288C287.06 145.898 288.93 145.498 290.8 145.108C295.85 144.038 299.54 139.877 301.85 132.617ZM548.07 278.628L528.64 259.198C528.59 259.148 528.52 259.128 528.46 259.078C527.99 258.648 527.48 258.267 526.97 258.057C526.52 257.867 526.05 257.777 525.58 257.777C524.84 257.777 524.15 258.078 523.53 258.508C523.45 258.558 523.35 258.538 523.27 258.598C523.11 258.728 522.96 258.867 522.83 259.027C522.7 259.177 522.46 259.338 522.22 259.508C522.12 259.568 522.02 259.628 521.9 259.688C521.52 259.868 521.04 260.028 520.33 260.098C520.21 260.108 520.08 260.107 519.96 260.117C519.9 259.927 519.84 259.728 519.79 259.538C518.37 254.578 516.82 248.028 515.19 240.068C513.57 231.988 512.01 225.347 510.55 220.337C509.01 215.037 506.74 210.238 503.82 206.068C502.98 204.878 502.08 203.798 501.1 202.818L497.11 198.828C500.13 195.908 503.17 193.037 506.24 190.188C509.28 187.207 512.47 185.598 516 185.268C517.88 185.088 519.32 183.507 519.32 181.617V180.198C519.32 179.198 518.92 178.278 518.25 177.608L498.82 158.177C498.38 157.737 497.83 157.408 497.19 157.238C490.97 155.538 484.48 154.037 477.89 152.777C477.66 152.737 477.43 152.708 477.21 152.708C476.37 152.708 475.55 152.998 474.89 153.538L474.88 153.548C474.38 153.958 474.06 154.508 473.84 155.108C473.82 155.168 473.75 155.217 473.72 155.277L470.68 152.238C470.14 151.698 469.44 151.328 468.64 151.208C463.12 150.368 457.42 149.757 451.66 149.247C451 149.187 450.37 149.078 449.7 149.018L437.24 136.557V111.918C441.09 103.358 444.93 94.8575 448.79 86.3975C449.87 83.9875 450.96 82.1675 452.06 80.9775C453.06 79.8775 454.17 79.0675 455.46 78.5275C456.81 77.9475 457.69 76.6175 457.69 75.1575V73.6175C457.69 72.6075 457.28 71.6875 456.62 71.0275L437.19 51.5975C436.99 51.3975 436.72 51.2575 436.47 51.1075C436.34 51.0275 436.23 50.9075 436.08 50.8375C435.66 50.6475 435.19 50.5375 434.7 50.5275C431.5 50.4275 428.29 50.3775 425.09 50.3775C422.66 50.3775 420.23 50.4075 417.8 50.4675C417.02 50.4875 416.35 50.7975 415.76 51.2175C415.7 51.2575 415.61 51.2475 415.56 51.2875C415.51 51.3275 415.49 51.3875 415.44 51.4375C415.19 51.6675 415 51.9275 414.82 52.2175C414.73 52.3575 414.62 52.4675 414.55 52.6175C414.34 53.0775 414.21 53.5775 414.21 54.1175V55.6575C414.21 56.3475 414.46 56.9775 414.81 57.5375C414.89 57.6675 414.96 57.7775 415.05 57.8975C415.14 58.0075 415.19 58.1475 415.29 58.2575L418.2 61.1675C418.18 61.3175 418.17 61.4575 418.12 61.6575C418.09 61.7875 418.06 61.9175 418.02 62.0675C417.87 62.5875 417.61 63.2675 417.22 64.0775L405.3 52.1575C405.28 52.1375 405.25 52.1075 405.23 52.0875C404.55 51.4475 403.65 51.0975 402.72 51.0975C402.64 51.0975 402.57 51.1075 402.49 51.1075C394.52 51.6075 386.36 52.3675 377.55 53.4175C376.84 53.5075 376.19 53.7875 375.67 54.2175C375.57 54.3075 375.52 54.4375 375.42 54.5375C375.31 54.6475 375.24 54.7575 375.15 54.8775C374.67 55.4975 374.32 56.2175 374.32 57.0575V57.0775C373.41 56.4975 372.34 56.0175 371.12 55.6475C370.72 55.5275 370.19 55.4775 369.75 55.3775C368.94 55.1975 368.19 54.9775 367.23 54.8875L366.54 54.8275C365.61 54.7575 364.65 54.7175 363.66 54.7175C361.13 54.7175 358.4 54.9475 355.53 55.3975C354.02 55.6375 352.56 55.9875 351.12 56.4275C350.64 56.5775 350.19 56.7875 349.72 56.9475C348.78 57.2875 347.84 57.6375 346.92 58.0575C346.38 58.3075 345.86 58.6175 345.33 58.9075C344.52 59.3475 343.72 59.7875 342.94 60.2975C342.4 60.6475 341.88 61.0475 341.36 61.4375C340.9 61.7775 340.41 62.0675 339.96 62.4375C339.47 62.8375 338.99 63.2475 338.52 63.6775C333.68 68.0575 329.85 73.8975 327.11 81.0375C326.47 82.6975 325.91 84.4075 325.43 86.1775L314.24 74.9875C314.12 74.8675 314 74.7475 313.88 74.6375C309.48 70.4575 303.9 68.3375 297.29 68.3375C294.88 68.3375 292.29 68.6275 289.6 69.1875C289.6 69.1875 271.28 73.0475 264.01 74.5475C263.43 74.6675 262.93 74.9175 262.5 75.2675C262.27 75.4575 262.06 75.6775 261.88 75.9075C261.43 75.6875 261 75.4175 260.51 75.3675L260.36 75.3575C260.12 75.3575 259.87 75.3875 259.63 75.4375C252.83 76.8175 246.04 78.1575 239.25 79.4175C231.87 80.7975 225.71 83.3075 220.95 86.9075C220.82 87.0075 220.7 87.0975 220.57 87.1975L209.83 76.4575C211.32 76.0075 212.64 75.1075 213.72 73.8175C215.07 72.1975 215.79 70.2775 215.79 68.2575C215.79 65.7775 214.86 63.5175 213.1 61.7175C213.07 61.6875 213.04 61.6575 213.01 61.6275L193.58 42.1975C193.56 42.1775 193.53 42.1675 193.51 42.1475C192.95 41.5975 192.2 41.0075 191.21 40.5475C191.18 40.5375 191.14 40.5275 191.11 40.5175C190.08 40.0575 188.83 39.7275 187.29 39.7275C187.16 39.7275 186.18 39.7775 186.06 39.7975C183.88 40.0075 181.49 40.7375 178.98 41.9375C176.76 42.9975 173.89 44.5175 170.36 46.4775C166.45 48.6575 162.97 50.3975 160.01 51.6275C157.49 52.6875 155.09 53.2275 152.86 53.2475C152.07 53.2575 151.37 53.5675 150.78 54.0075C150.72 54.0475 150.63 54.0375 150.58 54.0775C150.53 54.1175 150.51 54.1775 150.47 54.2175C150.22 54.4475 150.03 54.7175 149.85 55.0075C149.76 55.1475 149.65 55.2575 149.58 55.4075C149.37 55.8675 149.24 56.3775 149.24 56.9175V58.4675C149.24 59.1875 149.51 59.8375 149.88 60.4175C149.96 60.5375 150.02 60.6375 150.1 60.7475C150.18 60.8475 150.22 60.9675 150.31 61.0575L157.7 68.4475C157.7 68.4575 157.69 68.4975 157.69 68.5075C157.01 71.3475 156.34 74.1475 155.66 76.9775V75.9475C155.66 74.9375 155.25 74.0175 154.59 73.3575L135.16 53.9275C135.14 53.9075 135.1 53.9075 135.08 53.8875C134.54 53.3775 133.86 53.0475 133.08 52.9375C133.03 52.9275 133 52.8775 132.94 52.8675L132.76 52.8575C126.98 52.5575 121.19 52.0675 115.4 51.3975L115.31 51.3875C115.2 51.3775 115.09 51.3675 114.98 51.3675C114.14 51.3675 113.31 51.6675 112.66 52.1975L112.55 52.2975C111.77 52.9975 111.32 53.9875 111.32 55.0375V56.5775C111.32 57.1475 111.48 57.6775 111.73 58.1675C111.8 58.3175 111.91 58.4375 112.01 58.5775C112.14 58.7775 112.24 58.9975 112.4 59.1675L113.47 60.2375C113.82 60.5875 114.2 60.8875 114.42 61.4175C114.85 62.4075 115.06 63.5875 115.06 64.9075C115.06 65.4075 114.96 65.9475 114.89 66.4775L97.7902 49.3675C97.2902 48.8675 96.6402 48.5075 95.9102 48.3675C92.4402 47.6875 89.3602 46.8075 86.7902 45.7775C84.1802 44.7275 81.2802 43.3875 78.1802 41.7575C75.6902 40.3875 73.5502 39.2575 71.7902 38.4075C69.9402 37.5175 67.9802 36.7375 65.9202 36.0375C62.7502 34.9775 59.7102 34.4375 56.8702 34.4375C55.3102 34.4375 53.7802 34.5975 52.3102 34.9175C51.7602 35.0375 51.1302 35.2475 50.4802 35.5175C50.3502 35.5675 50.2302 35.6175 50.0902 35.6775C49.4402 35.9775 48.7802 36.3675 48.1402 36.8675C48.0902 36.9075 48.0302 36.9275 47.9702 36.9675C47.8602 37.0575 47.7702 37.1875 47.6602 37.2875C47.3602 37.5575 47.0702 37.8575 46.7902 38.1875C46.6202 38.3875 46.4602 38.6075 46.3002 38.8375C46.0402 39.1975 45.8102 39.6075 45.5902 40.0375C45.4502 40.3075 45.3202 40.5675 45.2002 40.8575C44.9902 41.3675 44.8302 41.9475 44.6802 42.5475C44.6102 42.8475 44.5102 43.1075 44.4502 43.4275C44.2802 44.3875 44.1602 45.4375 44.1602 46.6175C44.1602 50.3075 45.3402 53.8975 47.6502 57.2775C48.4202 58.4075 49.2502 59.4275 50.1602 60.3375L69.5901 79.7675C71.1401 81.3175 72.8902 82.5375 74.8302 83.4175C74.8302 83.4175 74.8301 83.4275 74.8401 83.4475C74.8401 83.4575 74.8402 83.4675 74.8502 83.4775C74.8602 83.5275 74.8702 83.5775 74.8802 83.6275C74.8802 83.6475 74.8902 83.6775 74.8902 83.6975C74.8902 83.7075 74.8902 83.7175 74.8902 83.7175C76.9302 93.5775 78.9802 103.417 81.0202 113.217C80.2002 113.327 79.4202 113.528 78.6902 113.818C78.1102 114.048 77.5002 114.407 76.8902 114.867C76.8102 114.927 76.7402 114.937 76.6602 114.997C76.5602 115.077 76.4902 115.238 76.3902 115.328C75.9002 115.768 75.4602 116.318 75.0502 116.978C74.8802 117.238 74.7202 117.478 74.5802 117.788C74.0802 118.798 73.6502 119.947 73.4402 121.467C73.3602 122.007 73.4402 122.518 73.5802 123.008C73.6202 123.158 73.7002 123.287 73.7602 123.427C73.9102 123.757 74.0902 124.058 74.3202 124.328C74.3802 124.398 74.4002 124.498 74.4702 124.568L83.7502 133.848C83.9302 134.178 84.1402 134.437 84.3202 134.777C85.0102 136.117 85.6202 137.638 86.2102 139.188C86.5502 140.077 86.9502 140.848 87.2502 141.798C88.7802 146.478 89.5502 151.468 89.5502 156.628C89.5502 159.678 89.0802 162.778 88.1702 165.858C87.7802 167.148 87.3202 168.258 86.8102 169.288C86.6602 169.588 86.5001 169.858 86.3401 170.138C86.1301 170.508 85.8902 170.808 85.6702 171.138L82.0102 167.478C81.7402 167.208 81.4202 167.028 81.1302 166.798C80.9102 166.628 80.7002 166.438 80.4702 166.288C79.7102 165.798 78.9102 165.398 78.0202 165.158C77.3002 164.958 76.6002 164.858 75.9302 164.858C74.4002 164.858 72.9802 165.358 71.7802 166.318L71.7602 166.337C71.2302 166.767 70.9302 167.338 70.5602 167.878C70.3502 168.188 70.0202 168.428 69.8702 168.768C69.4402 169.698 69.2202 170.748 69.2202 171.888C69.2202 174.128 69.9902 176.368 71.5102 178.568C71.9302 179.178 72.3902 179.737 72.9002 180.247L92.3302 199.677C93.7702 201.117 95.5402 202.117 97.6302 202.677C98.9402 203.027 100.26 203.208 101.55 203.208C104.22 203.208 106.81 202.458 109.27 200.988C111.84 199.428 113.9 197.548 115.43 195.348C116.83 195.218 118.16 194.767 119.37 193.997C120.06 193.567 120.7 193.037 121.28 192.427C122.16 192.827 123.09 193.108 124.06 193.258C124.62 193.338 125.16 193.388 125.7 193.388C127.06 193.388 128.36 193.118 129.61 192.568C131.61 191.658 133.04 190.067 133.73 187.967C134.17 186.637 133.8 185.198 132.84 184.238L131.61 183.008C131.53 182.718 131.52 182.308 131.54 181.668L131.98 179.238L143.81 191.068C144.39 191.648 145.17 192.038 146.04 192.128L146.14 192.138C153.33 192.658 160.81 192.918 168.38 192.918L171.61 192.908C173.62 192.878 175.24 191.248 175.24 189.238V187.918C175.24 186.928 174.84 185.998 174.16 185.328L170.54 181.708C170.52 181.578 170.52 181.438 170.52 181.288C170.53 181.048 170.6 180.638 170.63 180.328C171.1 178.388 171.56 176.447 172.03 174.497L182.57 185.038C182.58 185.178 182.66 185.278 182.68 185.418C182.85 186.628 183.14 187.777 183.63 188.837C183.69 188.957 183.77 189.068 183.84 189.188C184.32 190.137 184.95 190.998 185.68 191.798C185.79 191.918 185.84 192.068 185.95 192.188L205.38 211.617C205.45 211.687 205.52 211.748 205.58 211.818V270.518C205.58 277.858 204.74 283.958 203.1 288.648C202.79 289.518 202.47 290.237 202.14 290.867C202.03 291.077 201.92 291.237 201.81 291.427C201.64 291.707 201.48 291.968 201.32 292.198L199.55 290.427C199.4 290.277 199.24 290.127 199.07 289.977C197.75 288.877 196.1 288.297 194.33 288.297C194.19 288.297 193.48 288.338 193.34 288.348C192.4 288.458 191.54 288.737 190.73 289.117C190.47 289.237 190.24 289.407 190 289.557C189.66 289.767 189.29 289.917 188.97 290.177C188.67 290.427 188.38 290.697 188.1 290.987C186.67 292.537 185.92 294.398 185.92 296.378C185.92 297.568 186.16 298.708 186.62 299.758C186.77 300.108 187.08 300.388 187.27 300.708C187.66 301.358 188 302.037 188.57 302.607L208 322.037C208.04 322.077 208.08 322.118 208.12 322.158C209.7 323.668 211.82 324.477 214.25 324.477C214.72 324.477 215.2 324.438 215.72 324.388C219.54 323.928 223.18 322.177 226.53 319.167C229.12 316.837 231.16 314.378 232.61 311.838C234.9 311.048 236.9 309.508 238.54 307.218C239.81 305.458 240.73 303.398 241.31 301.068C241.86 301.028 242.43 300.967 243.03 300.867C245.72 300.427 247.93 299.518 249.62 298.138L249.94 297.867C251.68 296.297 252.79 294.507 253.35 291.677V290.477C253.35 289.467 252.94 288.548 252.28 287.888L247.08 282.688C247.08 282.648 247.08 282.607 247.08 282.557V280.688C247.3 280.918 247.51 281.147 247.73 281.367L267.16 300.797C269.3 302.937 271.75 304.528 274.49 305.568C275.81 306.088 277.24 306.357 278.73 306.357C279.63 306.357 280.57 306.257 281.52 306.057C283.22 305.717 284.71 305.078 285.96 304.148C287.36 304.558 288.84 304.777 290.41 304.787C292.52 304.787 294.8 304.517 297.39 303.977C301.04 303.207 304.17 301.768 306.71 299.698L307.05 299.408C310.01 296.868 311.51 294.018 311.51 290.958C311.51 289.078 310.83 287.398 309.59 286.158L293.83 270.397C296.79 271.777 299.91 272.478 303.15 272.478C304.79 272.478 306.47 272.298 308.17 271.938C313.99 270.707 319.37 267.567 324.18 262.587C326.44 260.237 328.49 257.598 330.3 254.708L336.37 260.777C336.64 261.047 336.95 261.278 337.3 261.458C339.35 262.508 342.05 263.058 345.56 263.168L346.83 263.198C349.3 263.198 351.89 262.888 354.51 262.458C354.67 261.618 354.76 260.748 355.14 259.988C355.73 258.798 356.56 257.777 357.59 256.938C357.85 256.728 358.13 256.538 358.4 256.358C357.96 255.888 357.64 255.377 357.44 254.807C356.88 253.177 357.84 250.788 359.31 249.888L370.69 242.677C371.36 242.267 372.1 242.008 373.06 241.848C373.67 241.738 374.41 241.648 375.24 241.638C375.27 241.628 376.22 241.608 376.26 241.608L377.58 241.647C378.39 241.687 379.23 241.758 380.08 241.858L415.57 246.318C416.5 246.448 417.35 246.587 418.1 246.747C418.92 246.917 419.64 247.128 420.23 247.318C421.12 247.628 421.78 247.968 422.31 248.378C423.07 248.928 423.62 249.888 423.85 250.888C424.56 251.148 425.14 251.657 425.58 252.277C432.08 251.917 438.45 251.688 444.67 251.688C448.27 251.688 451.86 251.737 455.46 251.867L455.59 251.878C456.35 251.878 457.05 251.588 457.66 251.158C458.21 251.628 458.88 251.968 459.65 252.048L459.81 252.057C469.1 252.527 478.26 253.428 487.03 254.758L487.25 254.788C487.27 254.788 487.28 254.788 487.3 254.788C487.7 255.298 488.1 255.807 488.52 256.307C489.27 257.217 490.06 258.087 490.9 258.927L510.33 278.357C515.14 283.167 521.51 286.907 529.7 289.737C532.77 290.797 535.41 291.307 537.77 291.307C538.37 291.307 538.96 291.268 539.51 291.208C542.65 290.828 545.1 289.678 546.81 287.778C548.52 285.858 549.38 283.598 549.38 281.078C549.34 280.278 548.8 279.358 548.07 278.628ZM441.2 179.988L443.98 182.768V187.997L436.05 180.068C437.76 180.028 439.47 179.998 441.2 179.988ZM376.11 86.2275C376.33 86.1975 376.55 86.1675 376.77 86.1575L388.89 98.2775C389.57 98.9575 390.5 99.3575 391.48 99.3575C391.73 99.3575 391.98 99.3275 392.22 99.2775L393.65 98.9775C395 98.7075 396.04 97.7075 396.42 96.4475V119.238C396.42 120.508 396.16 121.607 395.74 122.617C395.69 122.737 395.66 122.868 395.61 122.978C395.15 123.918 394.45 124.748 393.57 125.518C393.28 125.768 393.03 126.037 392.69 126.277L392.21 126.367C391.04 126.597 389.87 126.818 388.7 127.098L376.11 114.508C376.07 114.468 376.03 114.437 375.99 114.397C375.31 113.757 374.35 113.418 373.41 113.418C373.24 113.418 371.67 113.617 371.67 113.617C370.98 113.707 370.34 113.988 369.83 114.418C369.82 114.428 369.82 114.428 369.82 114.438C369.8 114.447 369.79 114.468 369.78 114.488C369.48 114.748 369.21 115.038 369.01 115.378C368.87 115.618 368.76 115.868 368.67 116.138C368.08 117.988 367.36 119.648 366.59 121.198C366.36 121.658 366.1 122.078 365.86 122.518C365.56 123.048 365.22 123.487 364.9 123.967C364.84 122.577 364.8 121.148 364.8 119.668C364.8 113.308 365.38 107.437 366.53 102.217C367.63 97.1975 369.16 93.1775 371.07 90.2675C372.63 87.8675 374.33 86.5175 376.11 86.2275ZM330.54 82.3375C333.07 75.7375 336.55 70.4175 340.99 66.3875C345.42 62.3775 350.45 59.8875 356.1 58.9975C359.84 58.4075 363.23 58.2275 366.27 58.4575C369.31 58.6875 371.49 59.3175 372.81 60.3175C373.03 65.5275 373.25 70.7375 373.47 75.9475C372.99 76.0475 372.52 76.1475 372.04 76.2475C371.49 75.1075 370.94 73.9775 370.39 72.8375C368.92 69.7375 366.88 67.2275 364.29 65.3375C361.69 63.4375 358.96 62.7175 356.1 63.1775C353.25 63.6275 350.73 65.5175 348.57 68.8075C346.41 72.0975 344.72 76.5075 343.52 81.9875C342.31 87.4775 341.7 93.5675 341.7 100.228C341.7 107.408 342.4 113.628 343.79 118.878C345.18 124.138 347.06 128.038 349.45 130.608C351.83 133.168 354.38 134.238 357.09 133.818C360.68 133.258 363.72 131.508 366.21 128.548C368.7 125.598 370.67 121.828 372.14 117.238C372.62 117.178 373.09 117.118 373.57 117.048C373.28 121.958 372.99 126.868 372.69 131.788C370.27 133.498 367.96 134.817 365.77 135.747C363.57 136.687 360.67 137.428 357.08 137.988C351.21 138.908 345.98 138.118 341.36 135.568C336.74 133.018 333.15 129.088 330.58 123.708C328.02 118.328 326.73 111.988 326.73 104.658C326.74 96.3875 328.01 88.9375 330.54 82.3375ZM264.75 153.538C269.51 150.728 271.89 146.528 271.89 140.958V89.2875C271.89 83.9375 269.51 80.7375 264.75 79.6675V78.1275C273.29 76.3675 281.83 74.5675 290.36 72.7575C299.23 70.8875 306.22 72.3875 311.36 77.2775C316.49 82.1675 319.05 90.1675 319.05 101.228C319.05 114.788 316.62 125.747 311.74 134.147C306.86 142.547 299.96 147.678 291.02 149.568C282.26 151.418 273.5 153.268 264.75 155.078V153.538ZM210.78 152.228V115.288C210.78 110.378 211.76 105.728 213.7 101.328C215.64 96.9275 218.79 93.1175 223.16 89.8275C227.52 86.5375 233.11 84.2875 239.92 83.0175C246.73 81.7475 253.55 80.4075 260.36 79.0175V80.5575C255.59 83.5775 253.21 87.7475 253.21 93.0975V144.768C253.21 150.118 255.59 153.347 260.36 154.438V155.978C251.16 157.848 241.97 159.637 232.77 161.277V159.738C237.53 156.838 239.92 152.678 239.92 147.328V133.038C239.92 127.978 238.69 123.967 236.23 120.967C233.77 117.967 230.38 116.858 226.06 117.598C223.94 117.958 222.28 118.748 221.11 119.958C219.94 121.178 219.36 122.697 219.36 124.527C219.36 126.217 219.83 127.438 220.78 128.198C221.74 128.958 222.84 129.237 224.08 129.027C225.03 128.867 225.86 128.528 226.56 128.008C227.25 127.488 227.93 126.767 228.59 125.837C229.1 125.897 229.57 126.277 230.02 126.967C230.46 127.657 230.67 128.448 230.67 129.328C230.67 131.238 229.97 132.948 228.59 134.478C227.19 136.008 225.32 136.958 222.98 137.358C220.56 137.758 218.44 137.367 216.6 136.188V151.358C216.6 154.578 217.05 156.948 217.92 158.458C218.8 159.968 220.59 160.948 223.31 161.378V162.918C216.79 163.998 210.27 164.997 203.75 165.867V164.328C208.43 161.788 210.78 157.718 210.78 152.228ZM152.71 81.0875C153.7 80.8875 154.52 80.3075 155.04 79.5175C154.24 82.8575 153.44 86.1675 152.65 89.5075C152.52 88.8275 152.38 88.1375 152.25 87.4575C152.24 87.4075 152.13 86.9375 152.13 85.5475C152.13 84.0375 152.36 82.6975 152.71 81.0875ZM112.94 77.1175C112.68 78.5275 112.41 79.9175 112.15 81.3275C112.1 81.1075 112.06 80.8875 112.01 80.6775C111.97 80.4975 111.89 80.0375 111.89 79.0775C111.89 78.4775 111.9 77.7375 112.94 77.1175ZM152.12 169.828C143.73 169.908 135.34 169.678 126.95 169.068V167.747C129.81 166.777 131.24 164.507 131.24 160.997C131.24 159.747 131.16 158.828 131.02 158.238C127.35 138.268 123.69 118.238 120.03 98.1275C116.18 119.368 112.34 140.538 108.49 161.608C108.42 161.968 108.38 162.468 108.38 163.128C108.38 164.958 109.19 166.387 110.8 167.427C110.43 168.537 109.72 169.348 108.65 169.828C107.59 170.298 106.43 170.437 105.19 170.247C104.31 170.107 103.49 169.818 102.72 169.358C101.95 168.898 101.34 168.377 100.9 167.777C100.17 169.487 99.2001 170.728 97.9801 171.488C96.7701 172.258 95.4402 172.498 93.9702 172.198C92.7302 174.658 90.7002 176.758 87.9202 178.438C85.1402 180.107 82.2002 180.548 79.1302 179.728C77.1502 179.198 75.6102 178.118 74.5102 176.518C73.4102 174.918 72.8602 173.378 72.8602 171.908C72.8602 170.738 73.2602 169.837 74.0702 169.188C74.8802 168.548 75.8602 168.387 77.0402 168.717C78.2102 169.037 79.2002 169.727 80.0002 170.777C80.8002 171.827 81.2202 172.947 81.2202 174.117C81.2202 174.627 81.1002 175.118 80.8902 175.568C80.8102 175.688 80.7702 175.908 80.7702 176.198C80.7702 176.708 80.9602 177.018 81.3202 177.108C83.5902 177.698 85.6202 176.988 87.4202 175.018C89.2102 173.048 90.6202 170.348 91.6502 166.938C92.6702 163.517 93.1902 160.087 93.1902 156.647C93.1902 151.077 92.3702 145.757 90.7102 140.677C89.0602 135.597 86.9801 131.387 84.4501 128.027C81.9201 124.667 79.4502 122.648 77.0302 121.978C77.3902 119.438 78.3802 117.858 79.9902 117.228C81.6002 116.588 83.4702 116.637 85.6002 117.367C81.5002 97.7075 77.3902 77.9275 73.2902 58.0275C72.3302 53.5675 71.2302 50.1475 69.9902 47.7475C68.7502 45.3475 66.6901 43.6975 63.8401 42.7275C61.7201 42.0075 59.9802 41.9675 58.6202 42.6475C57.2602 43.3175 56.5802 44.5675 56.5802 46.3975C56.5802 47.7175 57.0202 48.9475 57.9002 50.0775C58.7802 51.2175 59.7302 51.9575 60.7602 52.3275C61.6402 52.6375 62.4102 52.6675 63.0702 52.4175C63.7302 52.1675 64.1002 51.6875 64.1702 50.9775C64.9802 51.3975 65.6101 52.1775 66.0901 53.3275C66.5701 54.4775 66.8102 55.6675 66.8102 56.9175C66.8102 58.9675 65.9502 60.4175 64.2202 61.2275C62.5002 62.0375 60.3602 61.9875 57.7902 61.0375C54.9302 59.9775 52.5502 58.0275 50.6502 55.2375C48.7402 52.4475 47.7902 49.5675 47.7902 46.6275C47.7902 41.9375 49.5502 39.2775 53.0702 38.5075C56.5902 37.7275 60.4702 38.0875 64.7202 39.5175C66.6302 40.1575 68.4402 40.8875 70.1602 41.7175C71.8802 42.5475 73.9602 43.6375 76.3702 44.9775C79.6602 46.7075 82.6702 48.0975 85.3802 49.1775C88.0902 50.2575 91.3602 51.2175 95.1702 51.9575V53.2775C90.9202 54.1275 88.7902 56.1875 88.7902 59.6375C88.7902 60.6575 88.8602 61.4775 89.0102 62.1075C94.3602 87.8175 99.7102 113.337 105.06 138.677C109.49 115.257 113.93 91.7175 118.36 68.0575C118.57 66.9775 118.69 65.9275 118.69 64.8975C118.69 63.0675 118.38 61.4175 117.75 59.9675C117.13 58.5075 116.19 57.3775 114.95 56.5775V55.0375C120.81 55.7175 126.68 56.2075 132.54 56.5175V58.0575C131.44 58.2875 130.58 59.1875 129.95 60.7675C129.33 62.3375 129.02 64.1075 129.02 66.0975C129.02 67.3475 129.09 68.2575 129.23 68.8575C134.03 93.5675 138.83 118.167 143.63 142.647C149.49 118.377 155.36 93.9375 161.22 69.3575C161.36 68.8375 161.44 68.1375 161.44 67.2575C161.44 63.0675 158.58 60.2075 152.86 58.4575V56.9175C155.57 56.8875 158.42 56.2575 161.39 55.0075C164.35 53.7675 167.93 51.9975 172.11 49.6775C175.55 47.7675 178.35 46.2775 180.52 45.2575C182.68 44.2275 184.64 43.6275 186.4 43.4475C188.38 43.2475 189.92 43.7075 191.02 44.8375C192.12 45.9675 192.68 47.2975 192.68 48.8275C192.68 49.9975 192.27 51.0675 191.46 52.0375C190.65 52.9975 189.67 53.5575 188.5 53.6775C187.32 53.7975 186.34 53.4775 185.53 52.7075C184.72 51.9475 184.32 50.9775 184.32 49.7975C184.32 48.6275 183.59 48.1075 182.12 48.2375C178.82 48.5275 176.25 50.3975 174.43 53.8575C172.6 57.3175 170.87 62.4675 169.26 69.3075C162.04 99.7675 154.82 130.037 147.6 160.057C147.46 160.927 147.39 161.517 147.39 161.807C147.39 163.357 147.83 164.708 148.71 165.878C149.6 167.048 150.73 167.927 152.12 168.497V169.828ZM171.75 169.098V167.557C176.51 165.197 178.89 161.278 178.89 155.938V131.128C178.89 130.738 178.68 130.407 178.34 130.247C178 130.087 177.59 130.137 177.27 130.367C173.71 132.927 170.15 135.448 166.6 137.918V130.568C170.08 128.158 173.56 125.697 177.03 123.188C178.19 122.348 178.89 121.008 178.89 119.628V85.9275C178.89 80.5675 176.51 77.0875 171.75 75.3475V73.8075C180.95 73.2175 190.14 72.3075 199.34 71.1475V72.6875C194.57 75.3375 192.19 79.2875 192.19 84.6375V110.068C192.19 110.448 192.4 110.777 192.74 110.927C193.08 111.067 193.49 111.008 193.81 110.768C197.24 108.168 200.67 105.537 204.1 102.867V110.217C200.75 112.827 197.4 115.398 194.05 117.938C192.89 118.817 192.19 120.177 192.19 121.557V154.638C192.19 159.978 194.57 163.438 199.34 164.888V166.427C190.15 167.597 180.95 168.508 171.75 169.098ZM285.17 277.277C283.04 279.097 280.37 280.358 277.15 281.028C274.8 281.518 272.69 281.767 270.83 281.747C268.96 281.737 267.22 281.308 265.61 280.508C264.66 281.838 263.23 282.718 261.32 283.098C259.49 283.468 257.84 283.367 256.37 282.787C252.19 281.207 248.86 278.088 246.37 273.458C243.87 268.828 242.05 263.708 240.88 258.108C239.71 252.518 238.61 245.608 237.58 237.378C236.7 230.938 235.93 226.057 235.27 222.717C234.61 219.377 233.68 216.648 232.47 214.538C231.25 212.438 229.63 211.558 227.58 211.908C226.77 212.048 225.97 212.518 225.16 213.328C224.35 214.138 223.95 215.108 223.95 216.258V263.177C223.95 265.937 224.49 267.917 225.54 269.117C226.6 270.317 228.16 270.967 230.22 271.087V272.298C229.92 273.568 229.19 274.708 228.02 275.758C226.85 276.798 225.16 277.518 222.97 277.878C221.35 278.148 219.96 278.097 218.79 277.747C218.49 280.957 217.6 283.598 216.1 285.698C214.6 287.788 212.78 288.987 210.65 289.297C209.41 291.967 207.39 294.557 204.61 297.057C201.82 299.557 198.89 300.997 195.82 301.357C193.83 301.597 192.3 301.177 191.19 300.117C190.1 299.057 189.54 297.828 189.54 296.408C189.54 295.338 189.94 294.368 190.75 293.508C191.56 292.648 192.55 292.158 193.72 292.018C194.89 291.878 195.88 292.148 196.69 292.828C197.5 293.508 197.9 294.378 197.9 295.458C197.9 295.938 197.79 296.418 197.57 296.908C197.5 297.058 197.46 297.258 197.46 297.528C197.46 298.068 197.72 298.297 198.23 298.237C201.97 297.777 204.73 294.978 206.53 289.888C208.32 284.788 209.22 278.338 209.22 270.538V183.548C209.22 179.778 208.79 176.897 207.95 174.897C207.11 172.897 205.19 172.118 202.18 172.508C200.06 172.788 198.32 173.537 196.96 174.777C195.6 176.027 194.92 177.478 194.92 179.158C194.92 180.368 195.36 181.297 196.24 181.927C197.12 182.557 198.07 182.817 199.09 182.688C199.98 182.578 200.75 182.258 201.4 181.738C202.06 181.218 202.43 180.617 202.5 179.927C203.31 179.957 203.95 180.388 204.42 181.238C204.89 182.078 205.14 183.077 205.14 184.217C205.14 186.107 204.28 187.807 202.55 189.307C200.83 190.817 198.69 191.728 196.12 192.038C193.27 192.378 190.89 191.718 188.98 190.068C187.07 188.418 186.12 186.238 186.12 183.548C186.12 179.238 187.88 175.938 191.4 173.568C194.92 171.198 198.81 169.738 203.06 169.168C205.11 168.898 206.96 168.788 208.61 168.858C210.26 168.928 212.14 169.108 214.27 169.388C217.28 169.668 219.88 169.808 222.07 169.818C224.27 169.828 226.98 169.558 230.21 168.988V170.198C228.81 170.438 227.66 171.248 226.75 172.608C225.83 173.978 225.13 175.487 224.66 177.147C224.19 178.807 223.94 180.137 223.94 181.147V204.967C235.3 191.087 242.63 181.678 245.93 177.078C247.61 174.738 248.46 172.788 248.46 171.238C248.46 169.158 246.99 167.928 244.06 167.548V166.238C252.6 164.608 261.14 162.878 269.67 161.108V162.418C267.1 163.358 264.48 164.788 261.82 166.708C259.14 168.638 256.67 170.968 254.39 173.708C250.8 178.038 242.37 189.047 229.11 206.307C234.16 205.697 238.47 207.257 242.03 211.027C245.58 214.797 248.47 219.518 250.71 225.198C252.95 230.878 255.42 238.368 258.14 247.638C260.34 255.128 262.22 260.988 263.8 265.198C265.37 269.418 267.26 272.828 269.46 275.438C271.65 278.047 274.22 279.037 277.15 278.417C278.17 278.197 279.13 277.828 280 277.318C280.51 277.008 280.77 276.607 280.77 276.147C280.77 275.937 280.7 275.657 280.56 275.277C280.19 274.677 280.01 274.048 280.01 273.378C280.01 272.298 280.41 271.298 281.22 270.348C282.03 269.408 283.02 268.808 284.19 268.568C285.36 268.318 286.35 268.498 287.16 269.098C287.97 269.698 288.37 270.547 288.37 271.617C288.36 273.557 287.29 275.457 285.17 277.277ZM278.42 257.268L285.99 264.837C285.72 264.807 285.44 264.788 285.16 264.788C284.61 264.788 284.03 264.837 283.42 264.967C282.56 265.157 281.77 265.448 281.03 265.848C280.13 262.808 279.26 259.938 278.42 257.268ZM312.27 224.177C309.74 230.747 306.33 236.238 302.04 240.688C297.75 245.128 293.04 247.908 287.91 248.988C282.86 250.058 278.17 249.267 273.84 246.617C269.52 243.967 266.09 239.878 263.56 234.348C261.04 228.818 259.77 222.467 259.77 215.277C259.77 208.097 261.04 201.228 263.56 194.658C266.09 188.098 269.52 182.588 273.84 178.128C278.17 173.668 282.86 170.897 287.91 169.837C293.04 168.757 297.75 169.538 302.04 172.198C306.33 174.858 309.73 178.958 312.27 184.488C314.8 190.018 316.06 196.377 316.06 203.557C316.06 210.757 314.8 217.617 312.27 224.177ZM317.07 171.427C316.82 172.047 316.62 172.698 316.42 173.348C316.17 174.148 315.94 174.948 315.77 175.798C315.63 176.488 315.53 177.207 315.44 177.938C315.38 178.428 315.26 178.878 315.22 179.378L308.92 173.078C310.35 172.778 311.21 172.598 311.21 172.598C313.36 172.148 315.39 171.497 317.32 170.677C317.22 170.907 317.17 171.187 317.07 171.427ZM354.37 226.638C352.21 230.138 349.44 232.958 346.07 235.108C342.7 237.268 339.15 238.688 335.41 239.388C332.19 239.988 329.11 240.237 326.18 240.147C323.25 240.067 321.02 239.627 319.47 238.837V223.448C319.99 223.308 320.5 223.167 321.02 223.027C321.9 227.247 323.65 230.528 326.29 232.878C328.93 235.218 331.97 236.067 335.41 235.427C337.54 235.037 339.61 233.818 341.63 231.768C343.64 229.728 344.64 226.688 344.64 222.658C344.64 219.218 343.49 215.747 341.18 212.277C338.87 208.807 335.74 205.307 331.79 201.807C323.14 194.147 318.82 187.488 318.82 181.688C318.82 175.608 320.61 170.688 324.21 166.938C327.8 163.188 332.41 160.788 338.06 159.758C341.21 159.188 344.11 158.988 346.75 159.158C349.39 159.328 351.33 159.838 352.57 160.658V174.177C352.2 174.237 351.84 174.298 351.47 174.358C349.28 170.538 347.13 167.718 345.04 165.888C342.96 164.048 340.67 163.357 338.17 163.807C336.26 164.157 334.67 165.208 333.39 166.948C332.1 168.698 331.47 170.777 331.47 173.188C331.47 176.408 332.44 179.397 334.39 182.147C336.32 184.897 339.17 187.658 342.91 190.438C352.72 197.948 357.64 206.208 357.64 214.918C357.61 219.238 356.53 223.148 354.37 226.638ZM338.64 215.348C339.04 216.038 339.38 216.717 339.67 217.397C339.86 217.837 340.14 218.288 340.28 218.728C340.72 220.058 340.96 221.378 340.96 222.668C340.96 225.678 340.3 227.888 339.01 229.198C338.92 229.288 338.83 229.328 338.75 229.408C339.01 227.298 339.16 225.157 339.16 222.997C339.16 220.347 338.97 217.808 338.64 215.348ZM355.47 197.138C354.85 195.708 354.54 194.208 354.54 192.608C354.54 190.968 354.93 189.638 355.75 188.538C356.63 187.338 357.48 186.997 358.72 186.807L365.04 193.128V206.708L355.47 197.138ZM389.16 230.458C379.96 231.338 370.77 232.508 361.57 233.878V232.337C366.33 229.577 368.71 225.568 368.71 220.208V152.048C368.71 150.138 368.36 148.868 367.67 148.238C366.97 147.598 365.96 147.378 364.65 147.568C363.84 147.688 363.25 147.808 362.89 147.938C351.82 151.037 342.73 153.398 335.63 154.698C326.98 156.298 320.79 156.108 317.05 153.948C313.31 151.808 311.44 148.808 311.44 144.918C311.44 143.088 311.65 141.688 312.05 140.728C312.45 139.768 313.28 138.937 314.52 138.247C314.82 135.397 315.93 133.028 317.87 131.138C319.81 129.248 322.07 128.048 324.63 127.548C326.17 127.248 327.41 127.448 328.37 128.138C329.32 128.838 329.94 129.738 330.24 130.858C330.31 131.058 330.35 131.388 330.35 131.828C330.35 133.008 329.95 134.067 329.14 135.027C328.33 135.987 327.34 136.577 326.17 136.807C325 137.037 324.01 136.827 323.2 136.177C322.39 135.527 321.99 134.618 321.99 133.448C321.99 132.858 322.13 132.178 322.43 131.388C322.58 131.068 322.6 130.857 322.48 130.777C322.37 130.687 322.17 130.707 321.88 130.837C320.56 131.687 319.44 132.917 318.53 134.527C317.62 136.137 317.15 137.827 317.15 139.587C317.15 147.297 322.62 149.998 333.53 147.948C337.41 147.218 341.71 146.058 346.39 144.478C351.08 142.908 357.16 140.737 364.64 138.117C374.31 134.817 382.32 132.458 388.66 130.858C390.48 130.398 392.28 130.088 394.09 129.728C397.99 127.238 400.07 123.817 400.07 119.247V94.7275C395.53 85.5175 390.98 76.3875 386.44 67.3175C385.2 64.8075 383.87 62.8875 382.49 61.5775C381.09 60.2675 379.59 59.2675 377.98 58.5775V57.0375C386.23 56.0575 394.47 55.2775 402.72 54.7575V56.2975C400.3 57.3275 399.09 58.9275 399.09 61.0475C399.09 62.5175 399.79 64.5875 401.18 67.2775C404.29 73.4775 407.41 79.7275 410.52 86.0075C413.82 79.2675 417.12 72.5775 420.41 65.9375C421.44 63.8775 421.95 62.1075 421.95 60.6375C421.95 58.2975 420.59 56.6175 417.88 55.6475V54.1075C423.45 53.9875 429.02 53.9975 434.59 54.1675V55.7075C432.83 56.4575 431.27 57.5775 429.92 59.0675C428.56 60.5475 427.26 62.6775 426.02 65.4675C422.06 74.1375 418.11 82.8875 414.15 91.6975V118.518C414.15 121.528 414.82 123.837 416.18 125.497C417.34 126.907 419.14 128.518 421.31 129.608C421.4 129.638 421.51 129.647 421.6 129.677C425.55 131.067 428.56 132.898 430.61 135.098C432.67 137.298 433.7 139.508 433.7 141.708C433.7 143.758 433.11 144.917 431.94 145.177C431.94 143.717 431.08 142.277 429.35 140.897C427.63 139.517 425.08 138.397 421.71 137.587C418.34 136.777 414.31 136.448 409.61 136.658C405.44 136.848 397.77 138.148 386.64 141.108C384.89 141.648 383.67 142.388 383.02 143.298C382.36 144.218 382.03 145.477 382.03 147.087V218.548C382.03 223.898 384.41 227.318 389.18 228.908V230.458H389.16ZM436.1 228.837C421.48 228.327 406.86 228.878 392.24 230.168V228.628C397 226.238 399.38 222.378 399.38 216.958V165.288C399.38 159.718 397 156.178 392.24 154.758V153.217C406.16 151.987 420.09 151.428 434.01 151.818V166.328C433.57 166.318 433.13 166.308 432.69 166.298C431.15 163.108 429.57 160.737 427.96 159.188C426.35 157.638 424.52 156.858 422.47 156.878C419.21 156.908 415.95 156.978 412.68 157.098V182.708C413.85 182.668 415.03 182.628 416.2 182.598C420 182.498 423.04 180.208 425.32 175.658C425.91 175.658 426.49 175.658 427.08 175.668V194.467C426.49 194.467 425.91 194.468 425.32 194.458C423.2 189.918 420.16 187.658 416.2 187.758C415.03 187.788 413.85 187.827 412.68 187.867V223.598C416.57 223.458 420.45 223.377 424.34 223.367C426.61 223.367 428.52 222.588 430.06 221.038C431.6 219.488 433.14 216.938 434.68 213.388C435.16 213.398 435.63 213.418 436.11 213.438V228.837H436.1ZM524.6 265.978C523.5 267.208 521.84 267.938 519.6 268.208C517.36 268.478 514.63 268.018 511.41 266.908C502.76 263.928 496.05 259.828 491.29 254.048C486.52 248.278 483.27 242.178 481.5 235.548C479.75 228.908 478.24 220.807 476.99 211.177C476.18 205.527 475.49 201.188 474.91 198.158C474.32 195.128 473.41 192.537 472.16 190.427C470.91 188.307 469.23 187.088 467.1 186.768C466.29 186.648 465.63 186.788 465.12 187.198C464.61 187.598 464.35 188.208 464.35 189.018C464.35 189.458 464.48 189.858 464.73 190.228C464.99 190.598 465.3 190.798 465.67 190.848C466.18 190.918 466.58 190.837 466.88 190.587C467.09 190.837 467.21 191.148 467.21 191.518C467.21 192.178 466.95 192.667 466.44 192.997C465.92 193.317 465.38 193.447 464.79 193.367C463.25 193.157 461.97 192.367 460.94 190.997V214.848C460.94 219.178 461.53 222.467 462.7 224.747C463.87 227.037 465.67 228.838 468.09 230.238V231.777C458.89 230.377 449.7 229.498 440.5 229.038V227.497C445.26 225.687 447.64 222.197 447.64 216.837V165.168C447.64 162.678 447.09 160.438 445.99 158.448C444.89 156.468 443.42 155.017 441.6 154.117C441.23 153.947 440.87 153.788 440.5 153.628V152.087C449.7 152.547 458.89 153.428 468.09 154.828V156.367C466.55 156.567 464.98 157.767 463.37 159.927C461.75 162.097 460.95 164.288 460.95 166.488V183.527C465.97 178.327 470.99 173.267 476.02 168.367C478.8 165.657 480.2 163.458 480.2 161.698C480.2 160.238 479.21 158.928 477.23 157.818V156.388C483.57 157.588 489.91 159.037 496.25 160.777V162.208C491.85 162.618 487.86 164.628 484.26 168.168C479.72 172.378 475.18 176.718 470.64 181.188C475.1 182.347 478.7 184.917 481.41 188.777C484.12 192.637 486.19 197.047 487.62 201.967C489.05 206.877 490.57 213.358 492.18 221.388C493.86 229.588 495.43 236.177 496.85 241.147C498.28 246.127 500.41 250.567 503.23 254.557C506.05 258.527 509.77 261.288 514.39 262.948C516.52 263.718 518.62 263.998 520.71 263.798C522.79 263.598 524.43 262.827 525.6 261.497C525.82 261.587 526.04 261.678 526.25 261.768C526.24 263.328 525.7 264.738 524.6 265.978ZM297.6 193.858C296.64 195.518 295.28 197.748 293.53 200.538C291.19 204.038 289.42 207.028 288.25 209.508C287.08 211.988 286.49 214.518 286.49 217.078C286.49 217.818 286.53 218.317 286.61 218.587C287.49 217.157 288.62 216.297 290.02 215.997C291.12 215.767 292.1 215.988 292.98 216.638C293.87 217.288 294.3 218.138 294.3 219.168C294.3 220.638 293.82 221.948 292.87 223.098C291.92 224.248 290.74 224.968 289.35 225.268C287.29 225.698 285.75 225.037 284.73 223.277C283.7 221.507 283.19 219.358 283.19 216.788C283.19 215.028 283.4 213.558 283.85 212.358C282.89 212.198 282.12 211.897 281.53 211.467C280.95 211.037 280.65 210.128 280.65 208.738C280.65 207.718 281.14 206.488 282.14 205.068C283.13 203.648 284.62 201.818 286.6 199.568C289.45 196.188 291.65 193.298 293.19 190.918C294.73 188.548 295.5 186.177 295.5 183.837C295.5 181.057 294.82 178.608 293.47 176.518C292.11 174.428 290.34 173.568 288.14 173.958C288.07 173.978 287.99 173.988 287.92 174.008C285.43 174.528 283.12 176.617 281 180.247C278.87 183.887 277.19 188.528 275.95 194.168C274.7 199.818 274.08 205.867 274.08 212.307C274.08 218.757 274.7 224.548 275.95 229.668C277.19 234.798 278.88 238.737 281 241.467C283.13 244.207 285.44 245.318 287.92 244.788C290.42 244.268 292.74 242.178 294.9 238.538C297.06 234.898 298.76 230.258 300.02 224.598C301.26 218.958 301.89 212.908 301.89 206.458C301.89 200.158 301.23 194.218 299.91 188.628C299.32 190.458 298.55 192.198 297.6 193.858Z" fill="white"/>
<path d="M200.692 221.528C200.282 220.938 199.742 220.448 199.082 220.098C198.432 219.748 197.662 219.528 196.812 219.488L155.792 217.418C154.832 217.368 153.892 217.508 153.002 217.808C152.112 218.108 151.292 218.558 150.562 219.138C149.842 219.718 149.212 220.408 148.742 221.198C148.272 221.978 147.942 222.848 147.802 223.768L141.862 262.648C141.742 263.448 141.802 264.198 142.032 264.878C142.252 265.558 142.632 266.158 143.142 266.658C143.642 267.158 144.272 267.558 145.002 267.828C145.722 268.098 146.542 268.238 147.432 268.218L185.512 267.478C186.302 267.458 187.092 267.298 187.842 267.018C188.592 266.738 189.292 266.338 189.922 265.848C190.552 265.358 191.102 264.778 191.552 264.138C191.992 263.498 192.322 262.788 192.512 262.048L201.402 225.968C201.612 225.118 201.642 224.298 201.522 223.548C201.382 222.798 201.102 222.108 200.692 221.528ZM177.812 260.248L177.702 260.938L160.072 261.408L160.192 260.688C163.682 259.818 165.642 258.098 166.062 255.518L170.002 231.558L165.012 231.378L165.152 230.508C167.442 230.218 169.772 229.568 172.142 228.568C174.502 227.588 176.392 226.558 177.802 225.468L178.962 225.528L174.062 255.388C173.652 257.948 174.902 259.558 177.812 260.248ZM146.812 210.438C147.042 210.798 147.462 211.158 148.012 211.488C148.562 211.828 149.252 212.138 150.042 212.418C150.832 212.698 151.702 212.938 152.622 213.118C153.542 213.298 154.502 213.428 155.452 213.478L196.262 215.758C197.112 215.808 197.832 215.778 198.412 215.688C198.992 215.598 199.432 215.448 199.722 215.248C200.002 215.048 200.132 214.798 200.092 214.518C200.052 214.238 199.842 213.918 199.452 213.568L184.122 200.008C183.832 199.748 183.412 199.498 182.892 199.248C182.382 199.008 181.782 198.778 181.132 198.578C180.482 198.378 179.772 198.198 179.052 198.058C178.332 197.918 177.592 197.808 176.862 197.758L142.352 194.998C141.552 194.938 140.832 194.928 140.202 194.958C139.572 194.998 139.032 195.078 138.622 195.208C138.202 195.338 137.912 195.498 137.762 195.708C137.612 195.908 137.612 196.148 137.782 196.418L146.812 210.438ZM144.462 219.588C144.492 218.648 144.482 217.728 144.422 216.878C144.362 216.028 144.262 215.248 144.112 214.588C143.972 213.928 143.782 213.388 143.562 213.028L134.982 198.648C134.822 198.378 134.642 198.278 134.472 198.338C134.302 198.398 134.122 198.608 133.962 198.948C133.792 199.288 133.642 199.758 133.502 200.338C133.362 200.918 133.242 201.598 133.142 202.378L129.042 235.738C128.952 236.428 128.902 237.158 128.872 237.888C128.842 238.618 128.852 239.338 128.882 240.028C128.912 240.718 128.972 241.358 129.052 241.928C129.132 242.498 129.242 242.998 129.382 243.378L136.402 263.138C136.582 263.638 136.772 263.968 136.972 264.118C137.172 264.278 137.372 264.268 137.562 264.088C137.752 263.918 137.942 263.578 138.112 263.078C138.282 262.578 138.432 261.938 138.542 261.138L144.212 222.418C144.342 221.488 144.432 220.528 144.462 219.588Z" fill="white"/>
<path d="M26.04 140.067C25.66 139.207 25.2 138.377 24.69 137.607C24.18 136.837 23.62 136.137 23.05 135.547C22.48 134.947 21.9 134.457 21.34 134.097C20.78 133.747 20.25 133.527 19.78 133.477L1.06001 131.647C0.700005 131.607 0.440002 131.727 0.260002 131.967C0.0800021 132.207 0 132.557 0 133.017C0 133.467 0.0900021 134.007 0.260002 134.617C0.430002 135.227 0.690001 135.907 1.04 136.617L15.95 167.697C16.26 168.347 16.63 168.987 17.04 169.597C17.44 170.207 17.88 170.777 18.33 171.287C18.78 171.797 19.24 172.247 19.68 172.607C20.12 172.967 20.55 173.237 20.94 173.377L41.04 180.847C41.55 181.037 41.96 181.067 42.28 180.957C42.6 180.847 42.83 180.607 42.95 180.247C43.07 179.877 43.09 179.397 42.99 178.817C42.89 178.227 42.68 177.547 42.34 176.787L26.04 140.067ZM20.98 129.507C21.46 129.537 22.07 129.477 22.78 129.337C23.49 129.197 24.28 128.977 25.12 128.687C25.96 128.397 26.83 128.057 27.69 127.657C28.55 127.257 29.39 126.827 30.17 126.357L62.47 107.007C63.12 106.617 63.63 106.257 63.98 105.937C64.33 105.617 64.53 105.347 64.58 105.117C64.63 104.897 64.53 104.727 64.27 104.627C64.02 104.527 63.62 104.497 63.06 104.537L40.98 106.277C40.55 106.307 40.03 106.407 39.45 106.557C38.87 106.707 38.24 106.907 37.58 107.137C36.93 107.377 36.25 107.647 35.59 107.937C34.93 108.237 34.28 108.557 33.69 108.887L4.60001 125.177C3.91001 125.567 3.33 125.937 2.86 126.277C2.39 126.617 2.03 126.937 1.8 127.207C1.57 127.477 1.48001 127.707 1.53001 127.867C1.58001 128.037 1.78 128.137 2.14 128.167L20.98 129.507ZM84.15 147.007L71.8 112.397C71.51 111.597 71.11 110.907 70.64 110.347C70.16 109.787 69.6 109.367 69 109.087C68.39 108.807 67.74 108.687 67.08 108.727C66.41 108.767 65.74 108.977 65.09 109.377L32.83 129.057C32.06 129.527 31.39 130.157 30.85 130.887C30.31 131.617 29.9 132.447 29.64 133.337C29.37 134.217 29.25 135.147 29.3 136.077C29.34 137.007 29.54 137.927 29.92 138.787L46.04 175.727C46.37 176.497 46.83 177.107 47.37 177.577C47.91 178.037 48.53 178.347 49.2 178.487C49.86 178.627 50.57 178.617 51.28 178.427C51.99 178.247 52.7 177.887 53.38 177.367L81.87 155.357C82.45 154.907 82.94 154.347 83.35 153.697C83.75 153.057 84.06 152.337 84.27 151.587C84.47 150.837 84.58 150.047 84.56 149.267C84.53 148.497 84.4 147.727 84.15 147.007ZM58.44 166.677L57.81 164.977C56.98 162.747 56.48 160.547 56.32 158.397C56.15 156.257 56.17 154.267 56.39 152.447C56.61 150.637 56.98 148.457 57.5 145.917C57.99 143.417 58.33 141.377 58.53 139.767C58.73 138.167 58.74 136.447 58.57 134.597C58.4 132.747 57.93 130.887 57.17 128.997C56.74 127.917 56.13 127.257 55.36 126.977C54.59 126.697 53.75 126.837 52.86 127.397C52.03 127.907 51.47 128.637 51.18 129.587C50.89 130.537 50.92 131.487 51.28 132.427C51.63 133.337 52.13 133.927 52.77 134.207C53.42 134.477 54.03 134.447 54.61 134.107C54.79 134.237 54.93 134.437 55.03 134.707C55.3 135.407 55.23 136.227 54.8 137.177C54.37 138.137 53.72 138.897 52.85 139.477C51.64 140.277 50.51 140.417 49.46 139.877C48.4 139.327 47.64 138.417 47.17 137.147C46.43 135.147 46.51 133.067 47.4 130.907C48.29 128.767 49.94 126.977 52.35 125.497C54.96 123.907 57.34 123.257 59.5 123.537C61.65 123.797 63.25 125.127 64.27 127.547C65.03 129.337 65.37 131.207 65.29 133.167C65.21 135.137 64.89 137.027 64.32 138.857C63.75 140.697 62.96 142.917 61.92 145.527C60.69 148.777 59.85 151.387 59.4 153.327C58.96 155.297 59.02 157.037 59.6 158.557L66.87 153.117C68.27 152.067 69.26 150.917 69.86 149.657C70.45 148.407 70.8 146.877 70.88 145.077L71.69 144.487L74.43 154.327L58.44 166.677Z" fill="white"/>
<path d="M552.53 163.038C553.05 163.608 553.71 164.118 554.45 164.548C555.2 164.988 556.03 165.338 556.89 165.608C557.75 165.878 558.65 166.038 559.52 166.098C560.39 166.158 561.24 166.108 562.01 165.938L593.83 158.778C594.46 158.638 594.95 158.398 595.29 158.098C595.62 157.798 595.81 157.428 595.85 157.008C595.89 156.598 595.77 156.148 595.51 155.668C595.25 155.198 594.84 154.708 594.29 154.228L571.45 134.388C570.99 133.988 570.44 133.638 569.84 133.328C569.23 133.018 568.57 132.758 567.89 132.558C567.21 132.358 566.51 132.208 565.82 132.138C565.14 132.068 564.47 132.058 563.86 132.138L533.65 136.008C532.93 136.098 532.32 136.278 531.83 136.518C531.35 136.758 530.99 137.068 530.78 137.418C530.56 137.768 530.49 138.168 530.58 138.588C530.67 139.018 530.91 139.468 531.33 139.918L552.53 163.038ZM547.1 137.908C547.7 136.838 549.21 136.128 551.64 135.778C553.27 135.548 554.94 135.568 556.66 135.828C558.38 136.088 559.98 136.548 561.44 137.198C562.91 137.848 564.08 138.598 564.94 139.468C566.42 140.958 566.97 142.318 566.58 143.568C566.18 144.828 565.17 145.888 563.54 146.758C567.02 146.678 570.16 147.068 572.96 147.918C575.78 148.758 578.03 150.008 579.7 151.658C581.02 152.958 581.66 154.198 581.63 155.368C581.6 156.548 580.94 157.568 579.66 158.428C578.37 159.298 576.61 159.948 574.37 160.368C571.51 160.908 568.76 160.858 566.14 160.208C563.53 159.548 561.43 158.298 559.82 156.448C559.06 155.588 558.76 154.758 558.89 153.948C559.03 153.148 559.73 152.638 561.01 152.418C561.97 152.248 562.94 152.298 563.94 152.548C564.93 152.798 565.65 153.158 566.09 153.638C566.22 153.778 566.31 153.948 566.37 154.148C565.78 154.278 565.43 154.578 565.31 155.038C565.19 155.498 565.41 156.048 565.97 156.668C566.7 157.478 567.68 158.128 568.91 158.638C570.14 159.148 571.51 159.258 573.01 158.978C574.62 158.678 575.48 157.938 575.6 156.758C575.71 155.588 575.12 154.338 573.84 153.018C572.84 151.988 571.46 151.068 569.72 150.268C567.98 149.468 566.13 148.888 564.16 148.518C562.2 148.148 560.39 148.098 558.75 148.378L557.78 147.308C559.69 146.988 560.89 146.268 561.37 145.128C561.83 143.998 561.21 142.548 559.51 140.758C558.56 139.768 557.43 138.858 556.11 138.038C554.79 137.208 553.62 136.878 552.58 137.028C551.74 137.148 551.25 137.458 551.1 137.958C550.95 138.458 551.17 139.028 551.76 139.678C552.33 140.298 553 140.768 553.79 141.078C554.58 141.388 555.27 141.508 555.87 141.448C556.12 141.588 556.33 141.758 556.5 141.938C556.95 142.418 557.02 142.888 556.71 143.338C556.4 143.788 555.78 144.088 554.85 144.238C553.61 144.438 552.34 144.258 551.04 143.688C549.74 143.128 548.71 142.408 547.96 141.558C546.78 140.208 546.49 138.998 547.1 137.908ZM552.25 173.018C552.22 172.158 552.09 171.258 551.87 170.388C551.65 169.508 551.34 168.658 550.96 167.878C550.58 167.098 550.12 166.398 549.61 165.818L528.71 142.418C528.3 141.958 527.89 141.668 527.49 141.538C527.1 141.408 526.73 141.438 526.4 141.608C526.07 141.778 525.78 142.098 525.54 142.548C525.3 142.998 525.13 143.578 525.02 144.278L520.67 173.448C520.58 174.038 520.57 174.688 520.62 175.358C520.67 176.028 520.79 176.728 520.96 177.418C521.13 178.108 521.35 178.778 521.62 179.408C521.89 180.038 522.21 180.608 522.56 181.098L540.23 205.518C540.66 206.108 541.1 206.558 541.52 206.868C541.95 207.178 542.36 207.338 542.74 207.348C543.12 207.358 543.47 207.228 543.76 206.938C544.05 206.648 544.28 206.208 544.43 205.608L552.02 175.448C552.21 174.698 552.28 173.878 552.25 173.018ZM597.4 163.108C597.17 162.758 596.82 162.508 596.38 162.388C595.93 162.268 595.39 162.268 594.75 162.418L563.01 169.948C562.24 170.128 561.46 170.458 560.71 170.888C559.96 171.318 559.25 171.858 558.6 172.478C557.96 173.088 557.39 173.768 556.93 174.478C556.47 175.188 556.13 175.928 555.93 176.668L547.95 206.738C547.79 207.338 547.79 207.848 547.91 208.268C548.04 208.688 548.29 209.018 548.65 209.238C549.01 209.458 549.48 209.578 550.03 209.588C550.58 209.588 551.21 209.478 551.91 209.248L580.91 199.378C581.5 199.178 582.09 198.878 582.67 198.508C583.25 198.138 583.81 197.698 584.32 197.218C584.83 196.738 585.3 196.208 585.69 195.658C586.08 195.108 586.4 194.548 586.62 193.988L597.35 166.238C597.61 165.568 597.73 164.958 597.74 164.428C597.75 163.908 597.63 163.458 597.4 163.108Z" fill="white"/>
<path d="M381.251 290.246L382.051 279.136L373.401 288.986L381.251 290.246ZM363.171 254.866C363.851 255.046 364.661 255.196 365.571 255.316L408.391 261.066C409.361 261.196 410.321 261.276 411.211 261.306C412.101 261.336 412.921 261.316 413.631 261.256C414.341 261.196 414.941 261.086 415.381 260.946C415.821 260.806 416.121 260.616 416.221 260.396L420.311 251.866C420.391 251.706 420.301 251.536 420.061 251.356C419.831 251.186 419.461 251.006 418.981 250.836C418.501 250.666 417.921 250.506 417.251 250.366C416.591 250.226 415.841 250.096 415.041 249.996L379.591 245.566C378.831 245.466 378.071 245.406 377.341 245.376C376.611 245.346 375.921 245.336 375.291 245.366C374.661 245.396 374.101 245.446 373.641 245.526C373.181 245.606 372.821 245.716 372.601 245.856L361.171 253.086C360.881 253.276 360.781 253.476 360.841 253.676C360.911 253.886 361.151 254.096 361.541 254.296C361.951 254.496 362.491 254.696 363.171 254.866ZM422.631 254.496C422.611 254.356 422.561 254.366 422.491 254.536L418.761 263.486C418.661 263.716 418.551 264.116 418.431 264.646C418.301 265.176 418.171 265.836 418.031 266.586C417.891 267.336 417.751 268.166 417.621 269.036C417.491 269.906 417.361 270.816 417.251 271.716L412.461 310.236C412.361 311.036 412.291 311.716 412.251 312.266C412.211 312.806 412.191 313.216 412.201 313.476C412.211 313.736 412.251 313.846 412.311 313.796C412.371 313.746 412.461 313.536 412.571 313.156L416.891 298.206C416.971 297.926 417.071 297.516 417.171 297.026C417.271 296.536 417.381 295.966 417.491 295.346C417.601 294.726 417.711 294.056 417.811 293.376C417.911 292.696 418.011 291.996 418.101 291.306L422.301 258.796C422.401 258.046 422.481 257.366 422.531 256.776C422.591 256.186 422.631 255.686 422.651 255.296C422.661 254.906 422.661 254.626 422.631 254.496ZM413.731 269.446C413.471 268.606 413.031 267.826 412.461 267.146C411.891 266.456 411.181 265.876 410.371 265.426C409.561 264.976 408.651 264.666 407.671 264.526L364.581 258.626C363.661 258.496 362.781 258.556 361.981 258.776C361.181 258.996 360.451 259.366 359.831 259.866C359.221 260.366 358.711 260.986 358.351 261.706C357.991 262.426 357.781 263.236 357.751 264.116L356.311 301.826C356.281 302.606 356.421 303.386 356.701 304.116C356.981 304.846 357.401 305.526 357.941 306.126C358.471 306.726 359.111 307.246 359.831 307.666C360.551 308.076 361.351 308.376 362.201 308.526L402.081 315.536C402.991 315.696 403.871 315.686 404.681 315.536C405.501 315.386 406.251 315.096 406.911 314.676C407.571 314.266 408.121 313.726 408.541 313.096C408.961 312.466 409.231 311.726 409.331 310.926L413.981 272.106C414.091 271.176 414.001 270.286 413.731 269.446ZM393.801 295.456L388.801 294.636L388.281 301.706C388.051 304.826 389.381 307.106 392.281 308.576L392.221 309.436L375.031 306.416L375.091 305.566C378.481 305.256 380.291 303.526 380.521 300.386L381.031 293.366L367.921 291.226L367.991 290.256L389.151 264.746L390.991 264.996L389.051 291.496L394.051 292.296L393.801 295.456Z" fill="white"/>
<path d="M636.631 24.2874C634.741 20.2774 632.061 16.3274 628.641 12.7174C616.771 0.197418 600.311 -3.61258 590.961 3.68742L590.941 3.66743L492.621 56.8074L491.191 57.5774L490.961 57.7174C488.691 59.0274 486.571 60.5874 484.641 62.4174C465.611 80.4474 471.201 117.237 497.111 144.597C503.771 151.627 511.141 157.327 518.721 161.647L519.841 154.127C513.601 150.287 507.571 145.537 502.151 139.817C478.911 115.287 473.191 82.8274 489.411 67.4674C493.511 63.5774 498.721 61.0974 504.881 60.0774C509.881 59.2574 515.251 59.5374 520.751 60.6174C516.891 73.8074 522.741 92.2774 536.751 107.067C549.691 120.717 566.901 128.087 580.611 125.827C581.191 125.727 581.751 125.617 582.311 125.487C582.991 130.287 582.781 134.687 582.151 138.847L589.421 145.167L636.921 49.2074V49.1974C641.181 42.7874 640.921 33.3874 636.631 24.2874ZM577.041 96.3474C574.671 92.8174 572.181 89.3774 569.421 86.1574C566.711 82.9074 563.791 79.8174 560.691 76.9274C557.651 73.9774 554.391 71.2674 550.981 68.7674C547.601 66.2174 544.011 63.9574 540.321 61.8574C532.911 57.7174 524.911 54.5774 516.391 52.8574C525.111 52.8474 533.831 55.2174 541.801 58.9674C549.791 62.7174 557.141 67.8374 563.561 73.8974C566.741 76.9574 569.761 80.1974 572.491 83.6574C575.181 87.1474 577.711 90.7874 579.831 94.6474C584.151 102.307 587.211 110.737 588.281 119.377C585.501 111.157 581.721 103.457 577.041 96.3474ZM556.661 62.3574C556.661 62.3774 556.661 62.3874 556.671 62.4074C552.541 59.4874 548.231 56.9274 543.741 54.8174C535.181 50.7874 526.311 48.5474 517.981 48.3074L591.781 7.42742L600.471 2.95742C600.471 2.95742 526.581 42.3474 556.661 62.3574Z" fill="white"/>
</svg>
