<svg width="61" height="49" viewBox="0 0 61 49" fill="none" xmlns="http://www.w3.org/2000/svg">
<path d="M15.5155 38.9584C15.427 38.8315 15.3103 38.7261 15.1678 38.6508C15.0274 38.5756 14.8611 38.5282 14.6775 38.5196L5.81806 38.0745C5.61072 38.0637 5.4077 38.0938 5.21548 38.1583C5.02326 38.2229 4.84616 38.3196 4.68849 38.4444C4.53299 38.5691 4.39692 38.7175 4.29541 38.8874C4.1939 39.0551 4.12263 39.2422 4.09239 39.4401L2.80948 47.8016C2.78356 47.9736 2.79652 48.1349 2.84619 48.2812C2.89371 48.4274 2.97578 48.5564 3.08593 48.664C3.19392 48.7715 3.32999 48.8575 3.48765 48.9156C3.64315 48.9736 3.82026 49.0038 4.01248 48.9995L12.237 48.8403C12.4076 48.836 12.5782 48.8016 12.7402 48.7414C12.9022 48.6812 13.0534 48.5951 13.1894 48.4898C13.3255 48.3844 13.4443 48.2597 13.5415 48.122C13.6365 47.9844 13.7078 47.8317 13.7488 47.6725L15.6689 39.9132C15.7142 39.7304 15.7207 39.5541 15.6948 39.3928C15.6645 39.2315 15.6041 39.0831 15.5155 38.9584ZM10.5739 47.2854L10.5502 47.4338L6.74245 47.5349L6.76837 47.3801C7.52214 47.193 7.94545 46.8231 8.03616 46.2682L8.88712 41.1154L7.80939 41.0767L7.83963 40.8896C8.33422 40.8272 8.83745 40.6874 9.34932 40.4724C9.85903 40.2616 10.2672 40.0401 10.5718 39.8057L10.8223 39.8186L9.764 46.2402C9.67544 46.7908 9.94542 47.137 10.5739 47.2854ZM3.87857 36.5734C3.92825 36.6508 4.01896 36.7282 4.13775 36.7992C4.25654 36.8723 4.40556 36.939 4.57619 36.9992C4.74681 37.0594 4.93471 37.111 5.13341 37.1497C5.33211 37.1884 5.53945 37.2164 5.74463 37.2271L14.5587 37.7175C14.7423 37.7282 14.8978 37.7218 15.0231 37.7024C15.1483 37.6831 15.2434 37.6508 15.306 37.6078C15.3665 37.5648 15.3946 37.511 15.3859 37.4508C15.3773 37.3906 15.3319 37.3218 15.2477 37.2465L11.9367 34.3303C11.8741 34.2744 11.7834 34.2206 11.6711 34.1668C11.5609 34.1152 11.4314 34.0658 11.291 34.0228C11.1506 33.9797 10.9972 33.941 10.8417 33.9109C10.6862 33.8808 10.5264 33.8572 10.3687 33.8464L2.91531 33.2528C2.74252 33.2399 2.58702 33.2378 2.45095 33.2442C2.31488 33.2528 2.19826 33.2701 2.10971 33.298C2.019 33.326 1.95636 33.3604 1.92396 33.4055C1.89157 33.4486 1.89157 33.5002 1.92828 33.5582L3.87857 36.5734ZM3.37102 38.5411C3.3775 38.339 3.37534 38.1411 3.36238 37.9583C3.34942 37.7755 3.32783 37.6078 3.29543 37.4658C3.26519 37.3239 3.22415 37.2078 3.17664 37.1304L1.32354 34.0378C1.28898 33.9797 1.25011 33.9582 1.21339 33.9711C1.17668 33.984 1.1378 34.0292 1.10324 34.1023C1.06653 34.1754 1.03413 34.2765 1.00389 34.4013C0.973656 34.526 0.947738 34.6722 0.92614 34.84L0.0406287 42.0143C0.0211906 42.1627 0.010392 42.3197 0.00391267 42.4767C-0.0025667 42.6337 -0.000408098 42.7886 0.00607127 42.9369C0.0125506 43.0853 0.025509 43.223 0.0427873 43.3456C0.0600656 43.4681 0.0838237 43.5757 0.114061 43.6574L1.63023 47.907C1.66911 48.0145 1.71014 48.0854 1.75334 48.1177C1.79654 48.1521 1.83973 48.15 1.88077 48.1113C1.9218 48.0747 1.96284 48.0016 1.99956 47.8941C2.03627 47.7865 2.06867 47.6489 2.09243 47.4768L3.31703 39.1498C3.34511 38.9498 3.36454 38.7433 3.37102 38.5411Z" fill="white"/>
<path d="M12.3194 21.9604C12.2373 21.7754 12.138 21.597 12.0278 21.4314C11.9177 21.2658 11.7967 21.1152 11.6736 20.9883C11.5505 20.8593 11.4253 20.7539 11.3043 20.6765C11.1834 20.6012 11.0689 20.5539 10.9674 20.5432L6.92425 20.1496C6.8465 20.141 6.79034 20.1668 6.75147 20.2184C6.71259 20.27 6.69531 20.3453 6.69531 20.4442C6.69531 20.541 6.71475 20.6571 6.75147 20.7883C6.78818 20.9195 6.84434 21.0658 6.91993 21.2184L10.1402 27.9025C10.2071 28.0423 10.287 28.1799 10.3756 28.3111C10.462 28.4423 10.557 28.5649 10.6542 28.6745C10.7514 28.7842 10.8507 28.881 10.9458 28.9584C11.0408 29.0358 11.1337 29.0939 11.2179 29.124L15.5591 30.7305C15.6692 30.7714 15.7578 30.7778 15.8269 30.7542C15.896 30.7305 15.9457 30.6789 15.9716 30.6015C15.9975 30.5219 16.0018 30.4187 15.9802 30.2939C15.9586 30.167 15.9133 30.0208 15.8399 29.8574L12.3194 21.9604ZM11.2265 19.6894C11.3302 19.6958 11.462 19.6829 11.6153 19.6528C11.7687 19.6227 11.9393 19.5754 12.1207 19.513C12.3021 19.4507 12.49 19.3775 12.6758 19.2915C12.8615 19.2055 13.0429 19.113 13.2114 19.0119L20.1875 14.8506C20.3279 14.7667 20.438 14.6893 20.5136 14.6204C20.5892 14.5516 20.6324 14.4936 20.6432 14.4441C20.654 14.3968 20.6324 14.3602 20.5763 14.3387C20.5223 14.3172 20.4359 14.3108 20.3149 14.3194L15.5461 14.6936C15.4533 14.7 15.3409 14.7215 15.2157 14.7538C15.0904 14.786 14.9543 14.8291 14.8118 14.8785C14.6714 14.9301 14.5245 14.9882 14.382 15.0506C14.2395 15.1151 14.0991 15.1839 13.9716 15.2549L7.68882 18.7582C7.53979 18.842 7.41452 18.9216 7.31301 18.9947C7.2115 19.0679 7.13375 19.1367 7.08407 19.1947C7.0344 19.2528 7.01496 19.3023 7.02576 19.3367C7.03656 19.3732 7.07975 19.3947 7.15751 19.4012L11.2265 19.6894ZM24.8699 23.4529L22.2026 16.0097C22.14 15.8377 22.0536 15.6893 21.9521 15.5689C21.8484 15.4484 21.7274 15.3581 21.5979 15.2979C21.4661 15.2377 21.3257 15.2119 21.1832 15.2205C21.0385 15.2291 20.8938 15.2742 20.7534 15.3602L13.7859 19.5926C13.6196 19.6937 13.4749 19.8292 13.3583 19.9862C13.2416 20.1432 13.1531 20.3216 13.0969 20.5131C13.0386 20.7023 13.0127 20.9023 13.0235 21.1023C13.0321 21.3023 13.0753 21.5002 13.1574 21.6851L16.639 29.6294C16.7103 29.795 16.8096 29.9262 16.9262 30.0273C17.0429 30.1262 17.1768 30.1929 17.3215 30.223C17.464 30.2531 17.6174 30.2509 17.7707 30.2101C17.9241 30.1713 18.0774 30.0939 18.2243 29.9821L24.3775 25.2486C24.5028 25.1519 24.6086 25.0314 24.6972 24.8917C24.7835 24.754 24.8505 24.5992 24.8959 24.4379C24.939 24.2766 24.9628 24.1067 24.9585 23.9389C24.952 23.7733 24.9239 23.6077 24.8699 23.4529ZM19.3171 27.6831L19.181 27.3175C19.0018 26.8379 18.8938 26.3648 18.8592 25.9024C18.8225 25.4422 18.8268 25.0142 18.8744 24.6228C18.9219 24.2336 19.0018 23.7647 19.1141 23.2185C19.2199 22.6808 19.2934 22.2421 19.3366 21.8959C19.3797 21.5518 19.3819 21.1819 19.3452 20.784C19.3085 20.3862 19.207 19.9862 19.0428 19.5797C18.95 19.3474 18.8182 19.2055 18.6519 19.1453C18.4856 19.0851 18.3042 19.1152 18.112 19.2356C17.9327 19.3453 17.8117 19.5023 17.7491 19.7066C17.6865 19.9109 17.693 20.1152 17.7707 20.3173C17.8463 20.5131 17.9543 20.6399 18.0925 20.7002C18.2329 20.7582 18.3647 20.7518 18.4899 20.6786C18.5288 20.7066 18.559 20.7496 18.5806 20.8077C18.6389 20.9582 18.6238 21.1346 18.531 21.3389C18.4381 21.5453 18.2977 21.7088 18.1098 21.8335C17.8485 22.0056 17.6044 22.0357 17.3776 21.9195C17.1487 21.8013 16.9845 21.6055 16.883 21.3324C16.7232 20.9023 16.7405 20.455 16.9327 19.9905C17.1249 19.5302 17.4813 19.1453 18.0018 18.827C18.5655 18.485 19.0795 18.3453 19.5461 18.4055C20.0104 18.4614 20.356 18.7474 20.5763 19.2679C20.7404 19.6528 20.8139 20.055 20.7966 20.4765C20.7793 20.9002 20.7102 21.3066 20.5871 21.7002C20.464 22.0959 20.2933 22.5733 20.0687 23.1346C19.8031 23.8336 19.6216 24.3949 19.5245 24.8121C19.4294 25.2357 19.4424 25.6099 19.5677 25.9368L21.1378 24.7669C21.4402 24.5411 21.654 24.2938 21.7836 24.0228C21.911 23.754 21.9866 23.425 22.0039 23.0378L22.1788 22.911L22.7706 25.0271L19.3171 27.6831Z" fill="white"/>
<path d="M42.1112 35.0627C42.2235 35.1853 42.3661 35.295 42.5259 35.3874C42.6879 35.4821 42.8672 35.5573 43.0529 35.6154C43.2387 35.6735 43.433 35.7079 43.6209 35.7208C43.8088 35.7337 43.9924 35.7229 44.1587 35.6864L51.0312 34.1465C51.1672 34.1164 51.2731 34.0648 51.3465 34.0003C51.4178 33.9358 51.4588 33.8562 51.4674 33.7659C51.4761 33.6777 51.4502 33.5809 51.394 33.4777C51.3379 33.3766 51.2493 33.2713 51.1305 33.168L46.1976 28.9013C46.0982 28.8152 45.9794 28.74 45.8498 28.6733C45.7181 28.6066 45.5755 28.5507 45.4287 28.5077C45.2818 28.4647 45.1306 28.4324 44.9816 28.4174C44.8347 28.4023 44.69 28.4002 44.5583 28.4174L38.0336 29.2497C37.878 29.269 37.7463 29.3077 37.6405 29.3593C37.5368 29.411 37.4591 29.4776 37.4137 29.5529C37.3662 29.6282 37.3511 29.7142 37.3705 29.8045C37.3899 29.897 37.4418 29.9938 37.5325 30.0905L42.1112 35.0627ZM40.9385 29.6583C41.0681 29.4282 41.3942 29.2755 41.919 29.2002C42.2711 29.1507 42.6317 29.155 43.0032 29.211C43.3747 29.2669 43.7203 29.3658 44.0356 29.5056C44.3531 29.6454 44.6058 29.8067 44.7915 29.9938C45.1112 30.3142 45.23 30.6067 45.1457 30.8755C45.0594 31.1465 44.8412 31.3744 44.4892 31.5615C45.2408 31.5443 45.9189 31.6282 46.5237 31.811C47.1327 31.9917 47.6187 32.2605 47.9794 32.6153C48.2645 32.8949 48.4027 33.1616 48.3962 33.4132C48.3897 33.667 48.2472 33.8863 47.9707 34.0713C47.6921 34.2584 47.312 34.3982 46.8282 34.4885C46.2105 34.6046 45.6166 34.5939 45.0507 34.4541C44.487 34.3121 44.0335 34.0433 43.6857 33.6455C43.5216 33.4605 43.4568 33.282 43.4849 33.1078C43.5151 32.9358 43.6663 32.8261 43.9427 32.7788C44.1501 32.7422 44.3596 32.753 44.5756 32.8067C44.7894 32.8605 44.9449 32.9379 45.0399 33.0411C45.068 33.0713 45.0874 33.1078 45.1004 33.1508C44.973 33.1788 44.8974 33.2433 44.8715 33.3422C44.8455 33.4412 44.893 33.5594 45.014 33.6928C45.1717 33.867 45.3833 34.0068 45.649 34.1164C45.9146 34.2261 46.2105 34.2498 46.5345 34.1896C46.8822 34.125 47.068 33.9659 47.0939 33.7121C47.1176 33.4605 46.9902 33.1917 46.7137 32.9078C46.4978 32.6863 46.1997 32.4884 45.8239 32.3164C45.4481 32.1444 45.0485 32.0196 44.6231 31.94C44.1998 31.8605 43.8088 31.8497 43.4546 31.9099L43.2451 31.6798C43.6576 31.611 43.9168 31.4562 44.0205 31.211C44.1198 30.968 43.9859 30.6561 43.6188 30.2712C43.4136 30.0583 43.1695 29.8626 42.8844 29.6862C42.5994 29.5077 42.3467 29.4368 42.122 29.469C41.9406 29.4948 41.8348 29.5615 41.8024 29.669C41.77 29.7766 41.8175 29.8991 41.9449 30.0389C42.0681 30.1723 42.2127 30.2733 42.3834 30.34C42.554 30.4067 42.703 30.4325 42.8326 30.4196C42.8866 30.4497 42.932 30.4862 42.9687 30.525C43.0659 30.6282 43.081 30.7293 43.014 30.826C42.9471 30.9228 42.8132 30.9873 42.6123 31.0196C42.3445 31.0626 42.0702 31.0239 41.7894 30.9013C41.5087 30.7809 41.2862 30.626 41.1242 30.4432C40.8694 30.1529 40.8067 29.8927 40.9385 29.6583ZM42.0508 37.209C42.0443 37.024 42.0162 36.8305 41.9687 36.6434C41.9212 36.4541 41.8542 36.2713 41.7721 36.1036C41.6901 35.9358 41.5907 35.7853 41.4806 35.6606L36.9666 30.6282C36.8781 30.5293 36.7895 30.4669 36.7031 30.4389C36.6189 30.411 36.539 30.4174 36.4677 30.454C36.3964 30.4906 36.3338 30.5594 36.282 30.6561C36.2301 30.7529 36.1934 30.8777 36.1697 31.0282L35.2302 37.3015C35.2107 37.4283 35.2086 37.5681 35.2194 37.7122C35.2302 37.8563 35.2561 38.0069 35.2928 38.1552C35.3295 38.3036 35.377 38.4477 35.4353 38.5832C35.4937 38.7187 35.5628 38.8413 35.6384 38.9467L39.4547 44.1984C39.5476 44.3253 39.6426 44.4221 39.7333 44.4887C39.8262 44.5554 39.9147 44.5898 39.9968 44.592C40.0789 44.5941 40.1545 44.5661 40.2171 44.5038C40.2797 44.4414 40.3294 44.3468 40.3618 44.2178L42.0011 37.7316C42.0421 37.5703 42.0572 37.3939 42.0508 37.209ZM51.8022 35.0778C51.7525 35.0025 51.6769 34.9487 51.5819 34.9229C51.4847 34.8971 51.3681 34.8971 51.2299 34.9294L44.3747 36.5488C44.2084 36.5875 44.0399 36.6584 43.8779 36.7509C43.716 36.8434 43.5626 36.9595 43.4222 37.0929C43.284 37.224 43.1609 37.3703 43.0615 37.523C42.9622 37.6757 42.8888 37.8348 42.8456 37.9939L41.1221 44.4608C41.0875 44.5898 41.0875 44.6995 41.1134 44.7898C41.1415 44.8801 41.1955 44.9511 41.2732 44.9984C41.351 45.0457 41.4525 45.0715 41.5713 45.0737C41.6901 45.0737 41.8261 45.05 41.9773 45.0006L48.2407 42.8779C48.3681 42.8349 48.4956 42.7704 48.6208 42.6908C48.7461 42.6113 48.8671 42.5166 48.9772 42.4134C49.0874 42.3102 49.1889 42.1962 49.2731 42.0779C49.3573 41.9596 49.4264 41.8392 49.474 41.7188L51.7914 35.7509C51.8476 35.6068 51.8735 35.4756 51.8756 35.3616C51.8778 35.2498 51.8519 35.153 51.8022 35.0778Z" fill="white"/>
<path d="M23.3136 42.8965L23.4864 40.5072L21.6182 42.6255L23.3136 42.8965ZM19.4087 35.2877C19.5556 35.3264 19.7306 35.3586 19.9271 35.3845L29.1753 36.621C29.3848 36.649 29.5921 36.6662 29.7844 36.6727C29.9766 36.6791 30.1537 36.6748 30.307 36.6619C30.4604 36.649 30.59 36.6253 30.685 36.5952C30.78 36.5651 30.8448 36.5243 30.8664 36.477L31.7498 34.6425C31.7671 34.6081 31.7476 34.5715 31.6958 34.5328C31.6461 34.4963 31.5662 34.4575 31.4625 34.421C31.3589 34.3844 31.2336 34.35 31.0889 34.3199C30.9463 34.2898 30.7843 34.2618 30.6116 34.2403L22.9551 33.2876C22.791 33.2661 22.6268 33.2532 22.4692 33.2468C22.3115 33.2403 22.1625 33.2382 22.0264 33.2446C21.8903 33.2511 21.7694 33.2618 21.67 33.279C21.5707 33.2962 21.4929 33.3199 21.4454 33.35L18.9768 34.9049C18.9142 34.9457 18.8926 34.9887 18.9055 35.0318C18.9206 35.0769 18.9725 35.1221 19.0567 35.1651C19.1452 35.2081 19.2619 35.2511 19.4087 35.2877ZM32.2508 35.2081C32.2465 35.178 32.2357 35.1801 32.2206 35.2167L31.415 37.1415C31.3934 37.191 31.3697 37.277 31.3437 37.391C31.3157 37.5049 31.2876 37.6469 31.2573 37.8082C31.2271 37.9695 31.1969 38.148 31.1688 38.3351C31.1407 38.5222 31.1126 38.7179 31.0889 38.9114L30.0543 47.1955C30.0327 47.3675 30.0176 47.5138 30.009 47.6321C30.0004 47.7482 29.996 47.8364 29.9982 47.8923C30.0003 47.9482 30.009 47.9718 30.0219 47.9611C30.0349 47.9503 30.0543 47.9052 30.0781 47.8235L31.0111 44.6083C31.0284 44.5481 31.05 44.4599 31.0716 44.3546C31.0932 44.2492 31.117 44.1266 31.1407 43.9933C31.1645 43.8599 31.1882 43.7158 31.2098 43.5696C31.2314 43.4234 31.253 43.2728 31.2725 43.1244L32.1796 36.1329C32.2012 35.9716 32.2185 35.8253 32.2293 35.6984C32.2422 35.5716 32.2508 35.464 32.2552 35.3802C32.2573 35.2963 32.2573 35.2361 32.2508 35.2081ZM30.3286 38.4232C30.2725 38.2426 30.1775 38.0748 30.0543 37.9286C29.9312 37.7802 29.7779 37.6555 29.6029 37.5587C29.428 37.4619 29.2315 37.3953 29.0198 37.3651L19.7133 36.0963C19.5146 36.0683 19.3245 36.0812 19.1517 36.1286C18.9789 36.1759 18.8213 36.2554 18.6874 36.363C18.5556 36.4705 18.4455 36.6038 18.3677 36.7587C18.29 36.9135 18.2446 37.0877 18.2381 37.277L17.9271 45.3868C17.9207 45.5546 17.9509 45.7223 18.0114 45.8793C18.0718 46.0363 18.1626 46.1826 18.2792 46.3116C18.3936 46.4406 18.5319 46.5525 18.6874 46.6428C18.8429 46.731 19.0157 46.7955 19.1992 46.8277L27.8125 48.3353C28.009 48.3697 28.1991 48.3676 28.374 48.3353C28.5511 48.303 28.7131 48.2407 28.8557 48.1503C28.9982 48.0622 29.117 47.946 29.2077 47.8106C29.2984 47.6751 29.3567 47.5159 29.3783 47.3439L30.3826 38.9953C30.4064 38.7953 30.3869 38.6039 30.3286 38.4232ZM26.0242 44.0169L24.9443 43.8406L24.832 45.361C24.7823 46.032 25.0696 46.5224 25.6959 46.8385L25.6829 47.0234L21.9703 46.374L21.9832 46.1912C22.7154 46.1245 23.1063 45.7524 23.156 45.0772L23.2661 43.5674L20.4346 43.1072L20.4498 42.8986L25.0199 37.4125L25.4173 37.4662L24.9983 43.1653L26.0782 43.3373L26.0242 44.0169Z" fill="white"/>
<path d="M60.2756 5.22322C59.8674 4.36084 59.2886 3.51135 58.5499 2.73499C55.9862 0.0424564 52.4312 -0.776917 50.4118 0.793012L50.4075 0.788713L29.1725 12.2169L28.8636 12.3825L28.8139 12.4126C28.3237 12.6944 27.8658 13.0299 27.4489 13.4234C23.3389 17.3009 24.5462 25.2129 30.1422 31.097C31.5806 32.6088 33.1724 33.8346 34.8095 34.7637L35.0514 33.1465C33.7037 32.3206 32.4013 31.2991 31.2307 30.069C26.2114 24.7936 24.976 17.8128 28.4792 14.5095C29.3647 13.6729 30.4899 13.1395 31.8204 12.9202C32.9003 12.7438 34.0601 12.804 35.2479 13.0363C34.4143 15.8729 35.6777 19.8451 38.7036 23.0258C41.4984 25.9613 45.2154 27.5463 48.1764 27.0603C48.3017 27.0388 48.4227 27.0151 48.5436 26.9872C48.6905 28.0195 48.6451 28.9657 48.509 29.8604L50.0792 31.2195L60.3382 10.5825V10.5803C61.2583 9.20181 61.2021 7.18026 60.2756 5.22322ZM47.4054 20.7204C46.8935 19.9612 46.3557 19.2214 45.7596 18.5289C45.1743 17.83 44.5437 17.1654 43.8741 16.5439C43.2176 15.9095 42.5135 15.3267 41.777 14.789C41.047 14.2406 40.2716 13.7546 39.4747 13.303C37.8742 12.4126 36.1464 11.7374 34.3063 11.3675C36.1896 11.3653 38.0729 11.875 39.7943 12.6815C41.52 13.4879 43.1074 14.589 44.494 15.8923C45.1808 16.5504 45.8331 17.2472 46.4227 17.9913C47.0037 18.7418 47.5501 19.5246 48.008 20.3548C48.941 22.0021 49.6019 23.8151 49.833 25.6732C49.2326 23.9054 48.4162 22.2494 47.4054 20.7204ZM43.0037 13.4105C43.0037 13.4148 43.0037 13.417 43.0059 13.4213C42.1139 12.7933 41.183 12.2427 40.2133 11.789C38.3645 10.9223 36.4488 10.4405 34.6497 10.3889L50.5889 1.59733L52.4658 0.63602C52.4658 0.63602 36.5071 9.10719 43.0037 13.4105Z" fill="white"/>
</svg>
