<svg width="26" height="26" viewBox="0 0 26 26" fill="none" xmlns="http://www.w3.org/2000/svg">
<path d="M14.198 25.8465C15.2893 25.3398 16.2893 24.2291 17.1066 22.6169C17.5076 21.8236 18.0761 20.4059 18.0152 20.3445C18.0051 20.3343 17.6396 20.2677 17.2081 20.1961C16.3604 20.0528 15.2995 19.935 14.3503 19.8787L13.7563 19.848V22.924C13.7563 25.35 13.7716 26 13.8173 26C13.8528 25.9949 14.0254 25.9283 14.198 25.8465Z" fill="#828284"/>
<path d="M12.2335 22.924V19.8429L11.6599 19.8787C10.4569 19.9555 9.41117 20.0732 8.30965 20.2677C7.96955 20.3291 7.96447 20.3343 7.99493 20.4673C8.16244 21.1378 8.99493 22.9343 9.47716 23.6559C9.8934 24.2803 10.4264 24.8996 10.8528 25.2476C11.203 25.5394 12.0051 26 12.1574 26C12.2234 26 12.2335 25.5854 12.2335 22.924Z" fill="#828284"/>
<path d="M17.7208 25.2374C18.9036 24.7563 19.8376 24.2291 20.8122 23.487C21.3706 23.0673 22.5381 21.9925 22.5381 21.9055C22.5381 21.7776 19.8934 20.7283 19.5685 20.7283C19.5381 20.7283 19.4721 20.8614 19.4213 21.0252C19.0203 22.3201 18.198 23.9732 17.4416 24.9917C17.264 25.2374 17.1421 25.437 17.1726 25.437C17.2081 25.4319 17.4518 25.3449 17.7208 25.2374Z" fill="#828284"/>
<path d="M8.54822 24.9917C7.79188 23.9732 6.96954 22.3201 6.56853 21.0252C6.51777 20.8614 6.45178 20.7283 6.42132 20.7283C6.09645 20.7283 3.45178 21.7776 3.45178 21.9055C3.45178 21.926 3.68528 22.1717 3.96954 22.448C4.87817 23.3386 5.95432 24.1165 7.08122 24.6949C7.62944 24.9764 8.71066 25.437 8.83249 25.437C8.85787 25.437 8.72589 25.2374 8.54822 24.9917Z" fill="#828284"/>
<path d="M23.6802 20.5031C23.9137 20.1909 24.467 19.2339 24.7208 18.7067C25.2234 17.6421 25.5787 16.5417 25.7868 15.4311C25.8782 14.9142 25.9898 14.0748 25.9898 13.8547C25.9898 13.7728 25.8376 13.7677 23.3096 13.778L20.6345 13.7933L20.6244 14.126C20.5685 15.6409 20.2792 17.8776 19.9695 19.1213C19.9442 19.2185 19.9898 19.2441 20.3909 19.3669C21.4213 19.6894 22.2741 20.0323 23.1371 20.4673L23.5482 20.6772L23.6802 20.5031Z" fill="#828284"/>
<path d="M2.96447 20.4161C3.63452 20.0732 4.40609 19.7559 5.28427 19.4693C5.68528 19.3362 6.02031 19.2236 6.02538 19.2185C6.03046 19.2185 5.95939 18.8346 5.86802 18.3689C5.61421 17.115 5.41624 15.4618 5.36548 14.1004L5.35533 13.7933L2.67513 13.778C0.131981 13.7677 1.16366e-06 13.7728 1.16366e-06 13.8598C1.16366e-06 13.911 0.0355342 14.2283 0.0761433 14.5713C0.269037 16.1476 0.690356 17.55 1.37056 18.9063C1.67005 19.5051 2.14721 20.3035 2.34518 20.5339L2.46193 20.672L2.96447 20.4161Z" fill="#828284"/>
<path d="M18.5533 18.4713C18.8122 17.3094 19.0863 15.1343 19.0863 14.1874V13.7677H13.7563V18.3075L14.665 18.3689C15.7513 18.4406 16.7259 18.548 17.4873 18.6862C17.7919 18.7425 18.1421 18.7988 18.2538 18.8142L18.467 18.8449L18.5533 18.4713Z" fill="#828284"/>
<path d="M8.12183 18.7528C8.95939 18.5839 10.3807 18.4201 11.6345 18.3433L12.2335 18.3126V13.7677H6.88833L6.91878 14.5252C6.97462 15.7587 7.18274 17.335 7.44163 18.4815C7.533 18.8858 7.51777 18.8807 8.12183 18.7528Z" fill="#828284"/>
<path d="M25.9645 11.8638C25.7665 9.64764 24.9391 7.30354 23.7716 5.64528L23.5482 5.32284L23.1371 5.53268C22.2741 5.96772 21.4213 6.31063 20.3909 6.63307C19.9898 6.75591 19.9442 6.7815 19.9695 6.87874C20.2741 8.11732 20.5685 10.3591 20.6244 11.8996L20.6345 12.2067L23.3198 12.222L26 12.2323L25.9645 11.8638Z" fill="#828284"/>
<path d="M19.0863 11.8126C19.0863 10.8657 18.8122 8.69055 18.5533 7.52874L18.467 7.15512L18.2538 7.18583C18.1421 7.20118 17.7919 7.25748 17.4873 7.31378C16.7259 7.45197 15.7513 7.55945 14.665 7.6311L13.7563 7.69252V12.2323H19.0863V11.8126Z" fill="#828284"/>
<path d="M12.2335 7.69252L11.3249 7.6311C10.2386 7.55945 9.26396 7.45197 8.50254 7.31378C8.1929 7.25748 7.84772 7.20118 7.73604 7.18583L7.52285 7.15512L7.44163 7.51339C7.18274 8.66496 6.97462 10.2362 6.91878 11.4799L6.88833 12.2323H12.2335V7.69252Z" fill="#828284"/>
<path d="M5.34518 12.1965C5.36548 12.1811 5.38071 11.9917 5.38071 11.7768C5.38071 10.7992 5.62437 8.77756 5.8934 7.50315C5.97462 7.10906 6.04061 6.78662 6.04061 6.7815C6.04061 6.77638 5.86295 6.72008 5.64467 6.65355C4.93909 6.4437 3.89848 6.03937 3.16244 5.6811L2.44163 5.33307L2.30965 5.50709C2.06599 5.82441 1.51777 6.77126 1.26904 7.29331C0.629443 8.64449 0.258884 9.92402 0.0761433 11.4287C0.0355342 11.7717 1.16366e-06 12.089 1.16366e-06 12.1402C1.16366e-06 12.2272 0.142135 12.2323 2.65483 12.2323C4.11675 12.2323 5.32995 12.2169 5.34518 12.1965Z" fill="#828284"/>
<path d="M14.8985 6.08543C15.6751 6.02402 16.6599 5.90118 17.401 5.77323L18.0254 5.66575L17.9949 5.53268C17.8274 4.86732 16.9949 3.06063 16.5178 2.35433C15.9543 1.50473 15.3858 0.895669 14.7563 0.465748C14.5127 0.29685 13.9036 8.36095e-07 13.8071 8.36095e-07C13.7716 8.36095e-07 13.7563 1.01339 13.7563 3.07087V6.14173L14.0457 6.13661C14.2081 6.1315 14.5888 6.10591 14.8985 6.08543Z" fill="#828284"/>
<path d="M12.2335 3.07598C12.2335 0.414567 12.2234 8.36095e-07 12.1574 8.36095e-07C12.0051 8.36095e-07 11.203 0.460631 10.8528 0.752364C10.4264 1.1004 9.88833 1.7248 9.47716 2.34409C8.98985 3.0811 8.16244 4.86221 7.99493 5.53268C7.96447 5.66575 7.96447 5.66575 8.43655 5.75276C9.52284 5.94213 10.3756 6.03937 11.6599 6.12126L12.2335 6.15709V3.07598Z" fill="#828284"/>
<path d="M20.3299 5.04646C21.335 4.70354 22.5381 4.18661 22.5381 4.09449C22.5381 4.07402 22.2843 3.81299 21.9746 3.51102C21.0051 2.57441 19.8325 1.75039 18.6548 1.18228C18.1421 0.931496 17.2487 0.562993 17.1624 0.562993C17.1371 0.562993 17.264 0.7626 17.4416 1.00827C18.198 2.02677 19.0203 3.67992 19.4213 4.97992C19.4822 5.17441 19.5381 5.27165 19.5888 5.27165C19.6345 5.27165 19.9645 5.16929 20.3299 5.04646Z" fill="#828284"/>
<path d="M6.56853 4.97992C6.97462 3.66969 7.81218 1.99606 8.58376 0.962205C8.7462 0.742126 8.85787 0.562993 8.83249 0.562993C8.74112 0.562993 7.86295 0.92126 7.35533 1.16693C6.14721 1.75551 4.98985 2.56929 4.01523 3.51102C3.70559 3.81299 3.45178 4.07402 3.45178 4.09449C3.45178 4.22244 6.0863 5.27165 6.41117 5.27165C6.4467 5.27165 6.51777 5.13858 6.56853 4.97992Z" fill="#828284"/>
</svg>
