<svg width="28" height="33" viewBox="0 0 28 33" fill="none" xmlns="http://www.w3.org/2000/svg">
<path d="M24 22.6406L27.3594 26V27.6406H0.640625V26L4 22.6406V14.3594C4 11.7552 4.65104 9.48958 5.95312 7.5625C7.30729 5.63542 9.15625 4.38542 11.5 3.8125V2.64062C11.5 1.96354 11.7344 1.39062 12.2031 0.921875C12.6719 0.401042 13.2708 0.140625 14 0.140625C14.7292 0.140625 15.3281 0.401042 15.7969 0.921875C16.2656 1.39062 16.5 1.96354 16.5 2.64062V3.8125C18.8438 4.38542 20.6667 5.63542 21.9688 7.5625C23.3229 9.48958 24 11.7552 24 14.3594V22.6406ZM14 32.6406C13.0625 32.6406 12.2552 32.3281 11.5781 31.7031C10.9531 31.0781 10.6406 30.2969 10.6406 29.3594H17.3594C17.3594 30.2448 17.0208 31.026 16.3438 31.7031C15.6667 32.3281 14.8854 32.6406 14 32.6406Z" fill="white"/>
</svg>
