<svg width="34" height="34" viewBox="0 0 34 34" fill="none" xmlns="http://www.w3.org/2000/svg">
<path d="M12.8594 21.1406C14.0052 22.2865 15.3854 22.8594 17 22.8594C18.6146 22.8594 19.9948 22.2865 21.1406 21.1406C22.2865 19.9948 22.8594 18.6146 22.8594 17C22.8594 15.3854 22.2865 14.0052 21.1406 12.8594C19.9948 11.7135 18.6146 11.1406 17 11.1406C15.3854 11.1406 14.0052 11.7135 12.8594 12.8594C11.7135 14.0052 11.1406 15.3854 11.1406 17C11.1406 18.6146 11.7135 19.9948 12.8594 21.1406ZM29.4219 18.6406L32.9375 21.375C33.3021 21.6354 33.3542 22 33.0938 22.4688L29.7344 28.25C29.526 28.6146 29.1875 28.7188 28.7188 28.5625L24.5781 26.9219C23.4844 27.7031 22.5469 28.25 21.7656 28.5625L21.1406 32.9375C21.0365 33.4062 20.776 33.6406 20.3594 33.6406H13.6406C13.224 33.6406 12.9635 33.4062 12.8594 32.9375L12.2344 28.5625C11.2448 28.1458 10.3073 27.599 9.42188 26.9219L5.28125 28.5625C4.8125 28.7188 4.47396 28.6146 4.26562 28.25L0.90625 22.4688C0.645833 22 0.697917 21.6354 1.0625 21.375L4.57812 18.6406C4.52604 18.276 4.5 17.7292 4.5 17C4.5 16.2708 4.52604 15.724 4.57812 15.3594L1.0625 12.625C0.697917 12.3646 0.645833 12 0.90625 11.5312L4.26562 5.75C4.47396 5.38542 4.8125 5.28125 5.28125 5.4375L9.42188 7.07812C10.5156 6.29688 11.4531 5.75 12.2344 5.4375L12.8594 1.0625C12.9635 0.59375 13.224 0.359375 13.6406 0.359375H20.3594C20.776 0.359375 21.0365 0.59375 21.1406 1.0625L21.7656 5.4375C22.7552 5.85417 23.6927 6.40104 24.5781 7.07812L28.7188 5.4375C29.1875 5.28125 29.526 5.38542 29.7344 5.75L33.0938 11.5312C33.3542 12 33.3021 12.3646 32.9375 12.625L29.4219 15.3594C29.474 15.724 29.5 16.2708 29.5 17C29.5 17.7292 29.474 18.276 29.4219 18.6406Z" fill="#828284"/>
</svg>
